<svg width="107" height="25" viewBox="0 0 107 25" fill="none" xmlns="http://www.w3.org/2000/svg">
<path d="M28.2798 22.9524V8.89624H30.3911C31.3326 8.89624 32.0817 8.96894 32.64 9.11447C33.2047 9.25974 33.6811 9.50596 34.0691 9.85249C34.4636 10.2099 34.7757 10.6561 35.0072 11.1906C35.2437 11.7302 35.3617 12.2769 35.3617 12.8287C35.3617 13.8362 34.9761 14.6894 34.2063 15.3867C34.9523 15.6415 35.5401 16.0881 35.9722 16.7248C36.4086 17.356 36.6272 18.0904 36.6272 18.9285C36.6272 20.0269 36.2393 20.9549 35.4623 21.7137C34.9953 22.1817 34.4691 22.5059 33.8872 22.688C33.25 22.8642 32.4516 22.9523 31.493 22.9523L28.2798 22.9524ZM30.4003 14.9315H31.0652C31.8541 14.9315 32.4318 14.7571 32.7998 14.4079C33.1664 14.059 33.3504 13.5448 33.3504 12.8651C33.3504 12.2031 33.1617 11.7017 32.7862 11.3579C32.4098 11.0152 31.8634 10.8437 31.147 10.8437H30.4003V14.9315ZM30.4003 20.9581H31.7114C32.6704 20.9581 33.3745 20.7705 33.8236 20.3934C34.2964 19.987 34.5338 19.4716 34.5338 18.8462C34.5338 18.2395 34.3053 17.7295 33.8504 17.3172C33.408 16.9105 32.6158 16.7071 31.4752 16.7071H30.4003V20.9581Z" fill="white"/>
<path d="M41.4242 8.89624V22.9524H39.3032V8.89624H41.4242Z" fill="white"/>
<path d="M49.0876 10.8894V22.9524H46.9661V10.8894H43.7339V8.89624H52.3091V10.8894H49.0876Z" fill="white"/>
<path d="M59.0657 10.8894V22.9524H56.9437V10.8894H53.7119V8.89624H62.2883V10.8894H59.0657Z" fill="white"/>
<path d="M66.6759 8.89624V22.9524H64.5542V8.89624H66.6759Z" fill="white"/>
<path d="M69.4937 22.9524L72.4525 7.83997L77.2777 18.7638L82.2755 7.83997L84.9334 22.9524H82.7573L81.4015 14.4671L77.2407 23.5985L73.1986 14.4581L71.6877 22.9524H69.4937Z" fill="white"/>
<path d="M95.5303 10.8894H89.8943V14.2673H95.3656V16.2605H89.8943V20.9579H95.5303V22.9523H87.7734V8.89624H95.5303V10.8894Z" fill="white"/>
<path d="M106.636 10.9899L104.916 12.0095C104.594 11.451 104.288 11.0869 103.996 10.9167C103.693 10.7226 103.302 10.6257 102.822 10.6257C102.233 10.6257 101.744 10.792 101.355 11.126C100.968 11.4542 100.773 11.8668 100.773 12.3642C100.773 13.0499 101.283 13.6024 102.302 14.0206L103.704 14.5951C104.846 15.0564 105.68 15.6195 106.209 16.2835C106.736 16.9476 107 17.7636 107 18.7284C107 20.0202 106.569 21.089 105.708 21.9327C104.84 22.7825 103.763 23.2072 102.476 23.2072C101.256 23.2072 100.249 22.8461 99.4537 22.1238C98.6712 21.4012 98.1823 20.3847 97.9883 19.0737L100.136 18.6C100.233 19.4257 100.403 19.9959 100.647 20.3123C101.083 20.9187 101.72 21.2225 102.558 21.2225C103.219 21.2225 103.769 21.0011 104.205 20.5577C104.643 20.1145 104.861 19.5532 104.861 18.8732C104.861 18.6001 104.823 18.3498 104.748 18.1226C104.672 17.8952 104.552 17.685 104.392 17.4948C104.231 17.303 104.023 17.1245 103.769 16.9568C103.514 16.7905 103.21 16.6309 102.857 16.4794L101.502 15.9148C99.5774 15.1013 98.616 13.912 98.616 12.3462C98.616 11.2901 99.0198 10.4071 99.8276 9.69698C100.634 8.98112 101.639 8.62268 102.84 8.62268C104.46 8.62281 105.726 9.412 106.636 10.9899Z" fill="white"/>
<path d="M18.0883 4.47329C18.1078 4.38247 18.1268 4.29141 18.1409 4.19667C18.4965 1.8049 16.5374 -0.293785 13.6185 0.0338736C13.4612 0.0512254 13.1749 0.0749101 13.0534 0.239563C14.001 0.245515 14.9531 0.308843 15.2631 1.11311C15.6584 2.13978 14.8158 2.94062 13.9269 3.01484C12.65 3.12111 11.232 2.49644 9.8672 2.0382C8.63003 1.6229 7.31332 1.10804 5.85867 1.01052C2.91785 0.81306 0.6383 2.62652 0.513671 5.01879C0.404367 7.12267 1.45206 7.89983 3.03197 8.46218C2.805 8.05435 2.52636 7.93137 2.41528 7.48592C2.01353 5.87245 3.4227 5.15963 4.93345 5.27578C8.02955 5.51427 11.2062 7.53912 14.1839 7.53709C14.1839 7.53709 14.268 7.55128 14.3123 7.53076C14.7668 7.49795 16.3377 7.29303 17.3599 6.02305C17.3654 6.01684 17.3704 6.01076 17.3754 6.00443C17.4167 5.95263 17.4568 5.8988 17.4961 5.84332C17.5451 5.7748 17.5917 5.70425 17.6363 5.63155C17.6387 5.62737 17.6413 5.6237 17.6435 5.61977C17.6923 5.53922 17.738 5.45576 17.7807 5.37001C17.8055 5.32112 17.8303 5.27236 17.8539 5.22119C17.8564 5.21562 17.8578 5.21093 17.8603 5.20536C17.8627 5.19991 17.865 5.19421 17.8675 5.18851C17.9952 4.90138 18.0645 4.66593 18.0883 4.47329Z" fill="white"/>
<path d="M15.0593 19.1201C14.1087 19.6309 13.0134 19.9585 11.8331 20.0362C11.7704 20.0404 11.7088 20.0417 11.647 20.0443C9.43435 20.1944 7.28779 19.5523 6.01287 18.2776C5.32855 17.5933 4.83041 16.6386 4.53999 15.5497C4.41055 15.1355 4.32721 14.7035 4.2977 14.2563C4.29631 14.24 4.29669 14.2243 4.29567 14.2086C4.19701 13.256 4.24349 12.2515 4.44411 11.2663C4.45133 11.2229 4.45868 11.1801 4.46729 11.1368C4.62371 10.3516 4.91464 9.64603 5.29245 9.06823C5.98792 7.88248 7.04208 7.05554 8.17109 6.30371C5.91205 6.83643 4.0801 7.78774 2.56973 9.18133C1.15891 10.4832 -0.00467216 12.5126 1.41059e-05 15.0913C0.00533365 17.8071 1.21084 20.0437 2.82659 21.5151C4.48439 23.0247 6.65641 24.0825 9.4555 24.1874C15.2233 24.4035 18.7152 20.8057 18.6548 14.9886C17.909 16.7693 16.7233 18.322 15.0593 19.1201Z" fill="white"/>
<path d="M15.2072 13.3327C15.2072 15.6097 13.3617 17.4548 11.0849 17.4548C8.80865 17.4548 6.96289 15.6097 6.96289 13.3327C6.96289 11.0563 8.80865 9.21082 11.0849 9.21082C13.3617 9.21069 15.2072 11.0562 15.2072 13.3327Z" fill="white"/>
<path d="M18.5851 12.8479C19.6611 12.8479 20.5334 11.9756 20.5334 10.8995C20.5334 9.82348 19.6611 8.95117 18.5851 8.95117C17.509 8.95117 16.6367 9.82348 16.6367 10.8995C16.6367 11.9756 17.509 12.8479 18.5851 12.8479Z" fill="white"/>
<path d="M22.5441 15.2102C23.2637 15.2102 23.847 14.6269 23.847 13.9073C23.847 13.1877 23.2637 12.6044 22.5441 12.6044C21.8245 12.6044 21.2412 13.1877 21.2412 13.9073C21.2412 14.6269 21.8245 15.2102 22.5441 15.2102Z" fill="white"/>
<path d="M21.4022 18.797C21.9282 18.797 22.3546 18.3706 22.3546 17.8445C22.3546 17.3185 21.9282 16.8921 21.4022 16.8921C20.8761 16.8921 20.4497 17.3185 20.4497 17.8445C20.4497 18.3706 20.8761 18.797 21.4022 18.797Z" fill="white"/>
</svg>
