<svg width="154" height="18" viewBox="0 0 154 18" fill="none" xmlns="http://www.w3.org/2000/svg">
<path fill-rule="evenodd" clip-rule="evenodd" d="M153.539 6.1048C153.084 6.59791 152.304 6.65142 151.781 6.23224C151.781 6.23224 151.77 6.22384 151.75 6.20703C151.177 5.71883 150.226 5.43192 149.071 5.43192C148.542 5.43192 147.988 5.57153 147.609 5.8063C147.259 6.02278 147.099 6.27974 147.099 6.64923C147.099 6.64923 147.099 6.66377 147.099 6.69287C147.117 7.27331 147.492 7.50466 149.088 7.84208C149.088 7.84208 149.234 7.87233 149.526 7.93284C150.667 8.17227 151.444 8.40951 152.155 8.79835C153.308 9.42908 154 10.3866 154 11.6537C154 14.0469 151.818 15.4409 149.071 15.4409C147.104 15.4409 145.409 14.6651 144.478 13.6971C144.003 13.2033 144.034 12.4331 144.548 11.9769C145.053 11.5294 145.834 11.5501 146.312 12.017C146.312 12.017 146.321 12.0263 146.34 12.0449C146.497 12.2087 146.817 12.4323 147.212 12.6131C147.757 12.8627 148.381 13.0063 149.071 13.0063C150.584 13.0063 151.465 12.4435 151.465 11.6537C151.465 11.0809 150.767 10.6853 148.947 10.3034C148.947 10.3034 148.794 10.2717 148.487 10.2084C147.386 9.97522 146.784 9.78774 146.167 9.42867C145.139 8.82992 144.564 7.89009 144.564 6.64923C144.564 5.41155 145.192 4.40635 146.234 3.76059C147.047 3.2569 148.078 2.99731 149.071 2.99731C150.803 2.99731 152.352 3.46436 153.433 4.3863C153.957 4.83262 154.004 5.60201 153.539 6.1048Z" fill="white"/>
<path fill-rule="evenodd" clip-rule="evenodd" d="M54.5649 3.13257C58.0651 3.13257 60.9027 5.8576 60.9027 9.21909C60.9027 12.5806 58.0651 15.3056 54.5649 15.3056C51.0646 15.3056 48.2271 12.5806 48.2271 9.21909C48.2271 5.8576 51.0646 3.13257 54.5649 3.13257ZM54.5654 5.83769C52.6208 5.83769 51.0444 7.3516 51.0444 9.21909C51.0444 11.0866 52.6208 12.6005 54.5654 12.6005C56.51 12.6005 58.0864 11.0866 58.0864 9.21909C58.0864 7.3516 56.51 5.83769 54.5654 5.83769Z" fill="white"/>
<path fill-rule="evenodd" clip-rule="evenodd" d="M74.4236 6.64923C73.9514 7.17756 73.0554 7.21836 72.4518 6.64923C71.8283 6.15353 70.9894 5.83769 70.0575 5.83769C68.139 5.83769 66.5532 7.3516 66.5365 9.21909C66.5532 11.0866 68.139 12.6005 70.0575 12.6005C70.9188 12.6005 71.6984 12.3316 72.3686 11.8502C72.3686 11.8502 72.3964 11.8298 72.4518 11.789C73.0358 11.246 73.9314 11.2947 74.4236 11.789C74.9732 12.4094 74.9222 13.2645 74.2827 13.8178C73.1791 14.7493 71.6805 15.3056 70.0575 15.3056C66.5741 15.3056 63.7197 12.5806 63.7197 9.21909C63.7197 5.8576 66.5741 3.13257 70.0575 3.13257C71.7011 3.13257 73.2176 3.70347 74.4236 4.75565C74.9613 5.21659 75.004 6.07202 74.4236 6.64923Z" fill="white"/>
<path fill-rule="evenodd" clip-rule="evenodd" d="M141.501 5.9723L141.464 5.97282L138.647 5.97275V13.9529C138.647 14.6999 138.016 15.3055 137.238 15.3055C136.474 15.3055 135.851 14.7203 135.831 13.9908C135.831 13.9908 135.83 13.9782 135.83 13.9529L135.83 5.97275L133.013 5.97282C132.313 5.97282 131.746 5.42781 131.746 4.75551C131.746 4.09522 132.293 3.55771 132.976 3.53873C132.976 3.53873 132.988 3.53855 133.013 3.53821H141.464C142.164 3.53821 142.731 4.08322 142.731 4.75551C142.731 5.41581 142.184 5.95331 141.501 5.9723Z" fill="white"/>
<path fill-rule="evenodd" clip-rule="evenodd" d="M124.281 2.99731C124.987 2.99731 125.585 3.37079 125.863 3.99181C125.863 3.99181 125.912 4.10664 126.011 4.33631L126.127 4.60426C126.644 5.80363 127.922 8.7646 129.959 13.4872C130.227 14.1083 129.92 14.8204 129.273 15.0777C128.638 15.3303 127.912 15.0506 127.632 14.4525C127.632 14.4525 127.627 14.4413 127.617 14.419L126.949 12.8709H121.613L120.945 14.419C120.682 15.0288 119.963 15.3242 119.324 15.0912C119.324 15.0912 119.313 15.0867 119.289 15.0777C118.654 14.825 118.347 14.134 118.589 13.5211C118.589 13.5211 118.594 13.5098 118.603 13.4872L122.7 3.99181C122.977 3.37079 123.575 2.99731 124.281 2.99731ZM124.281 6.68604L122.663 10.4364H125.898L124.281 6.68604Z" fill="white"/>
<path fill-rule="evenodd" clip-rule="evenodd" d="M32.2487 8.8416C33.0628 9.49892 33.5803 10.4844 33.5803 11.586C33.5803 13.5457 31.9425 15.1381 29.9097 15.1698C29.9097 15.1698 29.8891 15.1699 29.848 15.1702H23.8623C23.1622 15.1702 22.5947 14.6252 22.5947 13.9529C22.5947 13.2926 23.1421 12.7551 23.8249 12.7361C23.8249 12.7361 23.8374 12.736 23.8623 12.7356H29.848C30.5092 12.7356 31.0451 12.2209 31.0451 11.586C31.0451 10.9625 30.5285 10.455 29.8839 10.4368C29.8839 10.4368 29.872 10.4366 29.848 10.4363H23.8623C23.1622 10.4363 22.5947 9.89127 22.5947 9.21896C22.5947 8.55867 23.1421 8.02117 23.8249 8.00218C23.8249 8.00218 23.8374 8.00201 23.8623 8.00167H29.1438C29.805 8.00167 30.3409 7.48694 30.3409 6.85199C30.3409 6.22858 29.8243 5.72107 29.1797 5.70282C29.1797 5.70282 29.1678 5.70265 29.1438 5.70231H23.8623C23.1622 5.70231 22.5947 5.1573 22.5947 4.485C22.5947 3.8247 23.1421 3.28721 23.8249 3.26821C23.8249 3.26821 23.8374 3.26804 23.8623 3.2677H29.1438C31.2051 3.2677 32.8761 4.87244 32.8761 6.85199C32.8761 7.5881 32.645 8.27239 32.2487 8.8416Z" fill="white"/>
<path fill-rule="evenodd" clip-rule="evenodd" d="M39.4951 4.485V12.7356H45.2695C45.9571 12.7356 46.5168 13.2613 46.5366 13.917C46.5366 13.917 46.5367 13.929 46.5371 13.9529C46.5371 14.6132 45.9897 15.1507 45.3069 15.1697C45.3069 15.1697 45.2945 15.1699 45.2695 15.1702H38.2275C37.54 15.1702 36.9803 14.6445 36.9605 13.9888C36.9605 13.9888 36.9603 13.9769 36.96 13.9529V4.485C36.96 3.81271 37.5275 3.2677 38.2275 3.2677C38.9151 3.2677 39.4748 3.79341 39.4945 4.44911C39.4945 4.44911 39.4947 4.46107 39.4951 4.485Z" fill="white"/>
<path fill-rule="evenodd" clip-rule="evenodd" d="M80.1987 4.48503L80.1986 8.33052L85.9933 3.56078C86.5248 3.12325 87.325 3.18237 87.7806 3.69281C88.2274 4.19345 88.1768 4.94229 87.6733 5.38367C87.6733 5.38367 87.6632 5.39221 87.6431 5.40928L83.8803 8.50644L87.8056 13.1897C88.2446 13.7134 88.1583 14.4797 87.613 14.9012C87.0779 15.3148 86.2997 15.2429 85.856 14.7454C85.856 14.7454 85.8476 14.7357 85.8308 14.7162L81.9547 10.0914L80.1986 11.5371L80.1987 13.953C80.1987 14.6253 79.6312 15.1703 78.9311 15.1703C78.2436 15.1703 77.6839 14.6445 77.6641 13.9889C77.6641 13.9889 77.6639 13.9769 77.6636 13.953V4.48503C77.6636 3.81273 78.2311 3.2677 78.9311 3.2677C79.6187 3.2677 80.1784 3.79344 80.1982 4.44914C80.1982 4.44914 80.1983 4.4611 80.1987 4.48503Z" fill="white"/>
<path fill-rule="evenodd" clip-rule="evenodd" d="M101.964 8.8416C102.778 9.49892 103.295 10.4844 103.295 11.586C103.295 13.5457 101.657 15.1381 99.6246 15.1698C99.6246 15.1698 99.604 15.1699 99.5629 15.1702H93.5771C92.8771 15.1702 92.3096 14.6252 92.3096 13.9529C92.3096 13.2926 92.857 12.7551 93.5398 12.7361C93.5398 12.7361 93.5522 12.736 93.5771 12.7356H99.5629C100.224 12.7356 100.76 12.2209 100.76 11.586C100.76 10.9625 100.243 10.455 99.5988 10.4368C99.5988 10.4368 99.5868 10.4366 99.5629 10.4363H93.5771C92.8771 10.4363 92.3096 9.89127 92.3096 9.21896C92.3096 8.55867 92.857 8.02117 93.5398 8.00218C93.5398 8.00218 93.5522 8.00201 93.5771 8.00167H98.8586C99.5198 8.00167 100.056 7.48694 100.056 6.85199C100.056 6.22858 99.5391 5.72107 98.8946 5.70282C98.8946 5.70282 98.8826 5.70265 98.8586 5.70231H93.5771C92.8771 5.70231 92.3096 5.1573 92.3096 4.485C92.3096 3.8247 92.857 3.28721 93.5398 3.26821C93.5398 3.26821 93.5522 3.26804 93.5771 3.2677H98.8586C100.92 3.2677 102.591 4.87244 102.591 6.85199C102.591 7.5881 102.36 8.27239 101.964 8.8416Z" fill="white"/>
<path fill-rule="evenodd" clip-rule="evenodd" d="M115.022 5.70178L114.984 5.70231H109.21L109.21 7.73104L113.858 7.73116C114.558 7.73116 115.125 8.27615 115.125 8.94845C115.125 9.60875 114.578 10.1463 113.895 10.1652C113.895 10.1652 113.883 10.1654 113.858 10.1658L109.21 10.1656L109.21 12.7356H114.984C115.672 12.7356 116.232 13.2613 116.251 13.917C116.251 13.917 116.252 13.929 116.252 13.9529C116.252 14.6132 115.705 15.1507 115.022 15.1697C115.022 15.1697 115.009 15.1699 114.984 15.1702H107.942C107.255 15.1702 106.695 14.6445 106.675 13.9888C106.675 13.9888 106.675 13.9769 106.675 13.9529V4.485C106.675 3.8247 107.222 3.28721 107.905 3.26821C107.905 3.26821 107.917 3.26804 107.942 3.2677H114.984C115.684 3.2677 116.252 3.81271 116.252 4.485C116.252 5.14529 115.705 5.6828 115.022 5.70178Z" fill="white"/>
<path fill-rule="evenodd" clip-rule="evenodd" d="M6.6333 12.8884V16.854C6.6333 17.4016 7.0787 17.8455 7.62812 17.8455C8.17755 17.8455 8.62294 17.4016 8.62294 16.854C8.62294 16.854 8.62294 15.5321 8.62294 12.8884C8.62294 12.3408 8.17755 11.897 7.62812 11.897C7.0787 11.897 6.6333 12.3408 6.6333 12.8884Z" fill="white"/>
<path fill-rule="evenodd" clip-rule="evenodd" d="M6.6333 0.991413V8.92271C6.6333 9.47025 7.0787 9.91412 7.62812 9.91412C8.17755 9.91412 8.62294 9.47025 8.62294 8.92271C8.62294 8.92271 8.62294 6.27894 8.62294 0.991413C8.62294 0.443875 8.17755 0 7.62812 0C7.0787 0 6.6333 0.443875 6.6333 0.991413Z" fill="white"/>
<path fill-rule="evenodd" clip-rule="evenodd" d="M3.31641 14.8712V16.854C3.31641 17.4015 3.7618 17.8454 4.31123 17.8454C4.86065 17.8454 5.30605 17.4015 5.30605 16.854C5.30605 16.854 5.30605 16.1931 5.30605 14.8712C5.30605 14.3236 4.86065 13.8798 4.31123 13.8798C3.7618 13.8798 3.31641 14.3236 3.31641 14.8712Z" fill="white"/>
<path fill-rule="evenodd" clip-rule="evenodd" d="M3.31641 14.8712V16.854C3.31641 17.4015 3.7618 17.8454 4.31123 17.8454C4.86065 17.8454 5.30605 17.4015 5.30605 16.854C5.30605 16.854 5.30605 16.1931 5.30605 14.8712C5.30605 14.3236 4.86065 13.8798 4.31123 13.8798C3.7618 13.8798 3.31641 14.3236 3.31641 14.8712Z" fill="white"/>
<path fill-rule="evenodd" clip-rule="evenodd" d="M3.31641 0.991413V10.9055C3.31641 11.4531 3.7618 11.8969 4.31123 11.8969C4.86065 11.8969 5.30605 11.4531 5.30605 10.9055C5.30605 10.9055 5.30605 7.60083 5.30605 0.991413C5.30605 0.443875 4.86065 0 4.31123 0C3.7618 0 3.31641 0.443875 3.31641 0.991413Z" fill="white"/>
<path fill-rule="evenodd" clip-rule="evenodd" d="M0 0.991413V12.8884C0 13.4359 0.445397 13.8798 0.994821 13.8798C1.54425 13.8798 1.98964 13.4359 1.98964 12.8884C1.98964 12.8884 1.98964 8.9227 1.98964 0.991413C1.98964 0.443875 1.54425 0 0.994821 0C0.445397 0 0 0.443875 0 0.991413Z" fill="white"/>
<path fill-rule="evenodd" clip-rule="evenodd" d="M0 16.8541C0 17.4016 0.445397 17.8455 0.994821 17.8455C1.54425 17.8455 1.98964 17.4016 1.98964 16.8541C1.98964 16.3065 1.54425 15.8627 0.994821 15.8627C0.445397 15.8627 0 16.3065 0 16.8541Z" fill="white"/>
<path fill-rule="evenodd" clip-rule="evenodd" d="M9.94922 2.97432V6.93997C9.94922 7.48751 10.3946 7.93139 10.944 7.93139C11.4935 7.93139 11.9389 7.48751 11.9389 6.93997C11.9389 6.93997 11.9389 5.61809 11.9389 2.97432C11.9389 2.42678 11.4935 1.98291 10.944 1.98291C10.3946 1.98291 9.94922 2.42678 9.94922 2.97432Z" fill="white"/>
<path fill-rule="evenodd" clip-rule="evenodd" d="M9.94922 10.9056V14.8712C9.94922 15.4188 10.3946 15.8627 10.944 15.8627C11.4935 15.8627 11.9389 15.4188 11.9389 14.8712C11.9389 14.8712 11.9389 13.5494 11.9389 10.9056C11.9389 10.3581 11.4935 9.91418 10.944 9.91418C10.3946 9.91418 9.94922 10.3581 9.94922 10.9056Z" fill="white"/>
</svg>
