<svg width="108" height="26" viewBox="0 0 108 26" fill="none" xmlns="http://www.w3.org/2000/svg">
<mask id="mask0_9103_2356" style="mask-type:luminance" maskUnits="userSpaceOnUse" x="0" y="0" width="108" height="26">
<path d="M0 0.588135H108V25.9999H0V0.588135Z" fill="white"/>
</mask>
<g mask="url(#mask0_9103_2356)">
<path d="M35.5043 7.54762C35.4559 8.23132 35.2073 8.7698 34.7587 9.16311C34.3104 9.55547 33.7194 9.75165 32.9858 9.75165C32.1835 9.75165 31.5528 9.47739 31.0935 8.92894C30.6334 8.38106 30.4033 7.62824 30.4033 6.67046V6.28157C30.4033 5.67078 30.5093 5.13244 30.7214 4.66656C30.9335 4.20128 31.2363 3.84431 31.6299 3.59563C32.0241 3.34636 32.4819 3.22187 33.0035 3.22217C33.725 3.22217 34.3066 3.41866 34.7483 3.81163C35.1891 4.204 35.4441 4.75535 35.5134 5.46567H34.2242C34.1924 5.05545 34.0798 4.75792 33.8865 4.57308C33.6929 4.38854 33.3985 4.29627 33.0035 4.29627C32.5736 4.29627 32.252 4.45252 32.0388 4.76503C31.8252 5.07814 31.7155 5.56338 31.7097 6.22076V6.70086C31.7097 7.38759 31.8121 7.88947 32.017 8.20648C32.222 8.52413 32.5452 8.68283 32.9862 8.68251C33.3844 8.68251 33.6816 8.59026 33.8779 8.40571C34.0742 8.22059 34.1866 7.9347 34.2151 7.54806L35.5043 7.54762ZM42.1612 6.63098C42.1612 7.25723 42.0523 7.80568 41.8345 8.27637C41.617 8.74801 41.3054 9.11178 40.8997 9.36774C40.4947 9.6237 40.03 9.75165 39.5057 9.75165C38.9872 9.75165 38.5243 9.62516 38.1171 9.37225C37.7109 9.11876 37.3958 8.75722 37.1719 8.28774C36.9484 7.81794 36.8352 7.27717 36.8325 6.66546V6.35145C36.8325 5.72584 36.9435 5.17525 37.1656 4.69968C37.3876 4.22412 37.7015 3.85883 38.1072 3.6038C38.5125 3.34968 38.9759 3.22247 39.4971 3.22217C40.0186 3.22217 40.4821 3.34938 40.8875 3.6038C41.2928 3.85883 41.6064 4.22412 41.8282 4.69968C42.0505 5.17525 42.1617 5.72433 42.1617 6.34691L42.1612 6.63098ZM40.8552 6.34283C40.8552 5.67637 40.7379 5.1701 40.5031 4.82402C40.268 4.47763 39.9327 4.30444 39.4971 4.30444C39.0645 4.30444 38.7306 4.47536 38.4956 4.81721C38.2605 5.15906 38.1418 5.66049 38.1394 6.3215V6.63143C38.1394 7.28035 38.2568 7.78357 38.4915 8.14118C38.7262 8.49935 39.0644 8.67844 39.5057 8.67844C39.938 8.67844 40.2705 8.50602 40.5031 8.16112C40.7349 7.81629 40.8523 7.31345 40.8552 6.65276V6.34283ZM45.139 9.66448H43.8502V3.3093H45.139V9.66448ZM52.0932 9.66448H50.8035L48.2941 5.48336V9.66448H47.0049V3.3093H48.2941L50.8081 7.49953V3.3093H52.0932V9.66448ZM58.4756 4.37024H56.5588V9.66448H55.2696V4.37024H53.3787V3.3093H58.4756V4.37024ZM63.6456 6.91051H61.1706V8.61263H64.0751V9.66448H59.881V3.3093H64.0668V4.37024H61.1706V5.88451H63.6456V6.91051ZM66.7916 8.61263H69.5291V9.66448H65.5026V3.3093H66.7916V8.61263ZM74.7035 6.91005H72.2284V8.61263H75.133V9.66448H70.9394V3.3093H75.1247V4.37024H72.2284V5.88451H74.7035V6.91005ZM81.5113 8.86134C81.2788 9.14354 80.951 9.36246 80.5266 9.51792C80.1029 9.67401 79.6334 9.75209 79.1169 9.75209C78.5756 9.75209 78.1011 9.63196 77.6926 9.39181C77.2841 9.15161 76.969 8.80309 76.7473 8.34625C76.5249 7.88947 76.4112 7.35265 76.4055 6.7358V6.30335C76.4055 5.66896 76.5109 5.11989 76.7219 4.65612C76.9321 4.19205 77.2358 3.83704 77.6322 3.5911C78.0293 3.34515 78.4943 3.22217 79.0273 3.22217C79.7694 3.22217 80.3494 3.40187 80.7674 3.76127C81.1861 4.12066 81.4338 4.64372 81.5113 5.33044H80.256C80.1988 4.96651 80.0718 4.70029 79.8761 4.53178C79.6798 4.36298 79.4098 4.27857 79.0661 4.27857C78.6271 4.27857 78.2936 4.44587 78.0642 4.78046C77.8355 5.11505 77.7193 5.61269 77.7161 6.2734V6.67908C77.7161 7.34553 77.8406 7.84894 78.0896 8.18927C78.3393 8.52959 78.7046 8.69979 79.1862 8.69979C79.6703 8.69979 80.0152 8.59509 80.2217 8.38576V7.29033H79.0489V6.32558H81.5113V8.86134ZM85.5423 7.33842H84.5156V9.66448H83.226V3.3093H85.5512C86.29 3.3093 86.8605 3.47674 87.2614 3.81163C87.6623 4.14592 87.863 4.61861 87.863 5.2297C87.863 5.66351 87.7703 6.02503 87.5854 6.31424C87.4011 6.60406 87.121 6.83472 86.7455 7.00629L88.0993 9.60324V9.66448H86.715L85.5423 7.33842ZM84.5156 6.27748H85.555C85.879 6.27748 86.1293 6.19383 86.3072 6.02654C86.4851 5.85894 86.574 5.62828 86.574 5.33452C86.574 5.03503 86.4901 4.79936 86.3224 4.62753C86.1547 4.45601 85.8974 4.37024 85.5512 4.37024H84.515L84.5156 6.27748ZM93.0457 8.35489H90.7854L90.3559 9.66448H88.9849L91.3146 3.3093H92.5089L94.8506 9.66448H93.4803L93.0457 8.35489ZM91.1335 7.29484H92.6982L91.9117 4.91523L91.1335 7.29484ZM97.395 7.42558V9.66448H96.106V3.3093H98.5468C99.0169 3.3093 99.4305 3.39673 99.7862 3.57158C100.143 3.74584 100.418 3.9939 100.61 4.31578C100.802 4.63706 100.898 5.00296 100.898 5.41348C100.898 6.03607 100.688 6.52691 100.268 6.88601C99.8485 7.24598 99.2672 7.42583 98.5252 7.42558H97.395ZM97.395 6.36461H98.5468C98.8879 6.36461 99.1478 6.28323 99.3269 6.12048C99.5061 5.95711 99.5956 5.72433 99.5956 5.4221C99.5956 5.11051 99.5054 4.85866 99.325 4.66656C99.1446 4.47506 98.8949 4.37629 98.5772 4.37024H97.395V6.36461ZM107.546 9.66448H106.257V6.94091H103.743V9.66448H102.453V3.3093H103.743V5.88451H106.257V3.3093H107.546V9.66448Z" fill="white"/>
<path d="M33.8707 15.2734H32.5076V19.0321H31.7543V15.2734H30.4033V14.6612H33.8707V15.2734ZM35.3382 16.1383C35.448 16.0056 35.5863 15.8995 35.7428 15.8278C35.8993 15.756 36.07 15.7206 36.2422 15.724C36.9349 15.724 37.2859 16.1192 37.2949 16.9097V19.0321H36.5662V16.937C36.5662 16.7128 36.5178 16.5542 36.421 16.461C36.3233 16.3681 36.1804 16.3216 35.9926 16.3216C35.7004 16.3216 35.4823 16.4516 35.3382 16.7115V19.0321H34.6085V14.4212H35.3382V16.1383ZM39.7091 19.092C39.2468 19.092 38.872 18.9465 38.5846 18.6555C38.2975 18.3641 38.1539 17.9765 38.1539 17.4924V17.4021C38.1539 17.0778 38.2166 16.7881 38.3418 16.5331C38.4574 16.2887 38.6399 16.0821 38.8682 15.9373C39.0948 15.795 39.3576 15.721 39.6251 15.724C40.0671 15.724 40.4088 15.865 40.6502 16.1469C40.891 16.4295 41.0115 16.8288 41.0119 17.3449V17.6394H38.8891C38.9114 17.9075 39.0012 18.1195 39.1582 18.2756C39.3152 18.4317 39.5128 18.5098 39.7508 18.5098C40.0851 18.5098 40.3574 18.3745 40.5676 18.1041L40.961 18.4799C40.8305 18.6742 40.6506 18.8302 40.4396 18.9318C40.2118 19.041 39.9617 19.0958 39.7091 19.092ZM39.622 16.3089C39.4217 16.3089 39.2601 16.3791 39.1373 16.5195C39.0142 16.6592 38.9355 16.8544 38.9013 17.1049H40.2908V17.0504C40.2754 16.8066 40.2105 16.6221 40.0961 16.4968C39.9818 16.3716 39.8237 16.3089 39.622 16.3089ZM43.8571 19.0321V16.3244H43.3616V15.7839H43.8571V15.4867C43.8571 15.1264 43.9572 14.8482 44.1575 14.6522C44.3574 14.4562 44.6376 14.3581 44.9979 14.3581C45.1262 14.3581 45.2623 14.3761 45.4063 14.4121L45.3881 14.9826C45.2962 14.965 45.2026 14.9569 45.1091 14.9585C44.7609 14.9585 44.5869 15.1376 44.5872 15.4958V15.7839H45.2465V16.3244H44.5868V19.0321H43.8571ZM47.9937 18.7144C47.7796 18.9661 47.4752 19.092 47.0808 19.092C46.7283 19.092 46.4618 18.989 46.2812 18.783C46.1 18.5772 46.0093 18.279 46.0093 17.8881V15.7839H46.739V17.879C46.739 18.2917 46.9101 18.498 47.2523 18.498C47.6065 18.498 47.8455 18.3709 47.9692 18.1168V15.7839H48.6989V19.0321H48.0115L47.9937 18.7144ZM50.6021 14.9943V15.7839H51.1757V16.3244H50.6021V18.1372C50.6021 18.2616 50.6266 18.3513 50.6756 18.4063C50.7249 18.4608 50.8125 18.4882 50.9383 18.4884C51.0228 18.4884 51.1078 18.4785 51.1933 18.4585V19.023C51.0372 19.068 50.8757 19.0911 50.7132 19.092C50.153 19.092 49.8729 18.7828 49.8729 18.1644V16.3244H49.3383V15.7839H49.8724V14.9948L50.6021 14.9943ZM53.946 18.7144C53.7318 18.9667 53.4277 19.0927 53.0335 19.0924C52.681 19.0924 52.4144 18.9894 52.2334 18.7834C52.0519 18.5777 51.9613 18.2794 51.9616 17.8885V15.7844H52.6913V17.8795C52.6913 18.2921 52.8624 18.4984 53.2046 18.4984C53.5585 18.4984 53.7976 18.3714 53.9219 18.1172V15.7844H54.6516V19.0326H53.9642L53.946 18.7144ZM57.3412 16.451C57.2429 16.4348 57.1436 16.4268 57.0439 16.4269C56.7097 16.4269 56.4844 16.555 56.3683 16.8113V19.0326H55.6391V15.7844H56.3356L56.3533 16.1474C56.5297 15.8654 56.7738 15.7245 57.0857 15.7245C57.1898 15.7245 57.2758 15.7384 57.3439 15.7662L57.3412 16.451ZM59.4213 19.0924C58.9588 19.0924 58.584 18.9469 58.2969 18.6559C58.01 18.3646 57.8665 17.9769 57.8662 17.4929V17.4025C57.8662 17.0783 57.9287 16.7886 58.0536 16.5336C58.1694 16.2891 58.352 16.0825 58.5805 15.9377C58.807 15.7956 59.0695 15.7215 59.3369 15.7245C59.7795 15.7245 60.1212 15.8654 60.362 16.1474C60.6031 16.43 60.7238 16.8293 60.7241 17.3454V17.6399H58.6014C58.6237 17.9079 58.7134 18.12 58.8704 18.2761C59.0275 18.4322 59.225 18.5102 59.4631 18.5102C59.7974 18.5102 60.0697 18.375 60.2799 18.1045L60.6733 18.4803C60.5428 18.6746 60.3629 18.8307 60.1519 18.9323C59.9241 19.0415 59.674 19.0963 59.4213 19.0924ZM59.3342 16.3094C59.1339 16.3094 58.9724 16.3796 58.8496 16.52C58.7265 16.6597 58.6478 16.8548 58.6136 17.1053H60.0031V17.0509C59.9873 16.8071 59.9225 16.6225 59.8084 16.4972C59.6941 16.3723 59.536 16.3097 59.3342 16.3094ZM63.1759 17.3781C63.1759 17.0598 63.239 16.7731 63.3651 16.5181C63.4809 16.2742 63.6654 16.0696 63.8966 15.9296C64.1247 15.7926 64.3871 15.724 64.6831 15.724C65.1215 15.724 65.4772 15.865 65.7504 16.1469C66.0236 16.4295 66.1716 16.8039 66.1932 17.2701L66.1964 17.4412C66.1964 17.7612 66.1348 18.0474 66.0115 18.2997C65.8972 18.5427 65.7129 18.7464 65.4829 18.885C65.2542 19.023 64.9893 19.092 64.6895 19.092C64.2308 19.092 63.8642 18.9395 63.5891 18.6346C63.3135 18.329 63.1759 17.9221 63.1759 17.4139V17.3781ZM63.9055 17.4412C63.9055 17.7754 63.9748 18.0371 64.1133 18.2262C64.2505 18.4153 64.443 18.5098 64.6895 18.5098C64.9353 18.5098 65.1265 18.4136 65.2638 18.2212C65.401 18.0297 65.4696 17.7486 65.4696 17.3781C65.4696 17.0501 65.3991 16.79 65.258 16.5975C65.117 16.4051 64.9252 16.3091 64.6831 16.3094C64.4449 16.3094 64.2562 16.4039 64.1158 16.593C63.9754 16.7821 63.9055 17.0648 63.9055 17.4412ZM67.3164 19.0321V16.3244H66.8209V15.7839H67.3164V15.4867C67.3164 15.1264 67.4161 14.8482 67.6163 14.6522C67.8164 14.4562 68.0965 14.3581 68.4568 14.3581C68.5851 14.3581 68.721 14.3761 68.8652 14.4121L68.8468 14.9826C68.7553 14.965 68.662 14.9569 68.5679 14.9585C68.2198 14.9585 68.0457 15.1376 68.0457 15.4958V15.7839H68.7058V16.3244H68.0457V19.0321H67.3164ZM71.9477 15.7839L71.9687 16.1234C72.1967 15.8571 72.5087 15.724 72.9051 15.724C73.339 15.724 73.6363 15.8903 73.7964 16.2227C74.0327 15.89 74.365 15.7237 74.7932 15.724C75.1515 15.724 75.4183 15.8231 75.593 16.0213C75.7684 16.2191 75.8586 16.5111 75.8624 16.8975V19.0321H75.1324V16.9188C75.1324 16.7125 75.0873 16.5614 74.9971 16.4655C74.9075 16.3693 74.7582 16.3212 74.5505 16.3212C74.384 16.3212 74.2487 16.3658 74.1433 16.4551C74.0365 16.5467 73.9597 16.6683 73.9228 16.8045L73.926 19.0326H73.1961V16.8948C73.1865 16.5124 72.9915 16.3212 72.6109 16.3212C72.3187 16.3212 72.1116 16.4404 71.9896 16.6788V19.0321H71.2603V15.7839H71.9477ZM76.7207 17.3785C76.7207 17.06 76.7836 16.7731 76.9093 16.5181C77.025 16.2742 77.2098 16.0697 77.4411 15.9296C77.6685 15.7926 77.9309 15.724 78.2276 15.724C78.6659 15.724 79.0217 15.865 79.2942 16.1469C79.5674 16.4295 79.7154 16.8039 79.737 17.2701L79.7402 17.4412C79.7402 17.7612 79.6786 18.0474 79.556 18.2997C79.4416 18.5428 79.2574 18.7464 79.0268 18.885C78.7981 19.023 78.5331 19.092 78.2333 19.092C77.7752 19.092 77.4081 18.9395 77.1336 18.6346C76.8579 18.329 76.7207 17.9221 76.7207 17.4139V17.3785ZM77.45 17.4412C77.45 17.7754 77.5192 18.0371 77.6571 18.2262C77.7949 18.4153 77.9874 18.5098 78.2333 18.5098C78.4792 18.5098 78.671 18.4136 78.8082 18.2212C78.9455 18.0297 79.0141 17.7486 79.0141 17.3781C79.0141 17.0501 78.9436 16.79 78.8025 16.5975C78.6609 16.4051 78.4696 16.3091 78.2276 16.3094C77.9887 16.3094 77.8 16.4039 77.6596 16.593C77.5199 16.7821 77.45 17.0648 77.45 17.4412ZM81.2802 15.7839L81.3011 16.1592C81.5413 15.8688 81.8564 15.7237 82.2465 15.724C82.923 15.724 83.2674 16.1112 83.2794 16.8857V19.0321H82.5501V16.9279C82.5501 16.7219 82.5057 16.5693 82.4161 16.47C82.3278 16.3708 82.1816 16.3212 81.979 16.3212C81.6855 16.3212 81.4663 16.4543 81.3221 16.7205V19.0321H80.5928V15.7839H81.2802ZM85.6986 19.092C85.2361 19.092 84.862 18.9465 84.5748 18.6555C84.2877 18.3641 84.1441 17.9765 84.1441 17.4924V17.4021C84.1441 17.0778 84.2063 16.7881 84.3315 16.5331C84.4471 16.2886 84.6301 16.082 84.8588 15.9373C85.0849 15.7952 85.3473 15.7211 85.6148 15.724C86.0569 15.724 86.3987 15.865 86.6401 16.1469C86.8809 16.4295 87.0016 16.8288 87.0016 17.3449V17.6394H84.8791C84.9013 17.9075 84.9903 18.1195 85.1478 18.2756C85.3048 18.4317 85.5023 18.5098 85.7406 18.5098C86.0747 18.5098 86.3473 18.3745 86.5569 18.1041L86.9508 18.4799C86.8206 18.6741 86.6408 18.8302 86.4299 18.9318C86.2018 19.0411 85.9515 19.096 85.6986 19.092ZM85.6116 16.3089C85.4121 16.3089 85.2501 16.3791 85.1269 16.5195C85.0036 16.6592 84.9255 16.8544 84.8912 17.1049H86.2812V17.0504C86.2653 16.8066 86.1999 16.6221 86.0862 16.4968C85.9718 16.3716 85.8136 16.3089 85.6116 16.3089ZM88.9107 17.9875L89.5708 15.7839H90.3484L89.0574 19.5244C88.8592 20.0708 88.5232 20.3439 88.0492 20.3439C87.9298 20.3419 87.8116 20.3237 87.6979 20.2899V19.7255L87.8364 19.7346C88.02 19.7346 88.1585 19.7011 88.2513 19.6343C88.3446 19.5668 88.4183 19.4543 88.4717 19.2967L88.5772 19.0171L87.4368 15.7839H88.2233L88.9107 17.9875ZM15.9186 19.0788L11.3418 21.0459V20.849C10.4592 21.0723 9.48176 21.2011 8.55557 21.2424C4.25194 21.2011 0.835863 18.9744 0.795935 16.3248V15.3406C2.20946 17.3726 5.08735 18.734 8.55557 18.6849C9.72953 18.734 10.9298 18.5506 11.9385 18.2915L12.3365 17.3077C11.1403 17.6608 9.83435 17.9063 8.55608 17.8976C4.25194 17.9063 0.835863 15.6795 0.796386 12.9804V12.1936C2.20946 14.0723 5.08099 15.4336 8.55608 15.341C10.1193 15.4341 11.6481 15.1087 12.9333 14.5537L13.1329 13.5704C11.8768 14.2252 10.2491 14.6055 8.55608 14.5537C4.25194 14.6055 0.835863 12.3787 0.796386 9.63657V8.84925C2.20946 10.7715 5.08735 12.1333 8.55608 12.1936C10.5273 12.1333 12.3964 11.6182 13.9288 10.8164L14.1276 9.63606C12.7372 10.6548 10.707 11.3115 8.55608 11.4063C4.25194 11.3115 0.83632 9.0843 0.796386 6.29217C0.835863 3.63664 4.25194 1.40948 8.55608 1.37454C11.1217 1.40993 13.5045 2.29934 14.9235 3.73511L15.0619 3.96246L16.0647 3.96699L15.9186 3.73511C14.5074 1.83966 11.6849 0.588135 8.55608 0.588135C3.79361 0.588135 0 3.18286 0 6.29262V16.5213C0.167445 19.5571 3.87439 22.0289 8.55608 22.0289C11.6481 22.0289 14.4271 20.8263 15.9186 19.0788Z" fill="white"/>
<path d="M14.0564 25.9999L15.6628 19.2499L11.0447 21.2352L13.8563 9.52226H8.43359L9.83899 3.76465H27.1095L25.7036 9.52226H20.0813L18.876 12.6987L25.101 10.1176L14.0564 25.9999ZM16.8681 17.86L16.0649 21.8306L22.6914 11.9046L17.2692 14.287L19.6793 8.72814H25.101L26.1053 4.55877H10.4411L9.43691 8.72814H14.8596L12.2485 19.8458L16.8676 17.8609L16.8681 17.86Z" fill="white"/>
<path d="M43.8452 19.0389H44.5685V16.3189H45.2383V15.7899H44.5685V15.4776C44.5685 15.3636 44.5885 15.2675 44.6284 15.1895C44.6683 15.113 44.7313 15.051 44.8085 15.0125C44.8887 14.9701 44.9839 14.949 45.094 14.949C45.1484 14.949 45.1983 14.9511 45.2437 14.9553C45.2921 14.9593 45.3363 14.9662 45.3762 14.9762L45.3944 14.4181C45.3274 14.3998 45.2591 14.3868 45.1902 14.3791C45.1196 14.3685 45.0483 14.3634 44.9769 14.3641C44.7446 14.3641 44.5434 14.407 44.3734 14.4929C44.2063 14.5739 44.0687 14.7051 43.98 14.8682C43.8901 15.0325 43.8452 15.2356 43.8452 15.4776V15.7899H43.3465V16.3185H43.8452V19.0389ZM35.3404 16.1633V14.4276H34.6203V19.0389H35.3404V16.7201C35.3619 16.679 35.3861 16.6402 35.413 16.6039C35.479 16.5141 35.5609 16.443 35.659 16.3907C35.7588 16.3389 35.8738 16.313 36.0039 16.313C36.1282 16.313 36.2333 16.3341 36.3192 16.3761C36.4054 16.4161 36.4705 16.482 36.5143 16.574C36.5606 16.6662 36.5838 16.7903 36.5838 16.9461V19.0389H37.3098V16.9524C37.3098 16.7301 37.2849 16.5419 37.2349 16.3879C37.1955 16.2464 37.1224 16.1165 37.0217 16.0095C36.929 15.9118 36.8137 15.8385 36.6858 15.7962C36.5464 15.7503 36.4002 15.728 36.2534 15.7304C36.0783 15.7278 35.9048 15.7655 35.7465 15.8406C35.5882 15.9156 35.4492 16.026 35.3404 16.1633ZM32.5097 19.0389V15.268H33.882V14.6676H30.4023V15.268H31.7623V19.0389H32.5097Z" fill="white"/>
<path fill-rule="evenodd" clip-rule="evenodd" d="M39.7153 19.0987C39.4925 19.1021 39.2713 19.0624 39.0637 18.9817C38.8783 18.9057 38.7107 18.7923 38.5713 18.6486C38.436 18.5035 38.3308 18.3332 38.2619 18.1471C38.1889 17.948 38.1523 17.7375 38.1539 17.5254V17.4056C38.1539 17.1515 38.1909 16.9213 38.265 16.715C38.3389 16.509 38.4418 16.3329 38.574 16.1868C38.703 16.0403 38.863 15.9244 39.0423 15.8474C39.2272 15.7682 39.4266 15.7284 39.6277 15.7303C39.8601 15.7303 40.0634 15.7693 40.2376 15.8474C40.4112 15.9254 40.5553 16.0355 40.6696 16.1777C40.7858 16.3178 40.872 16.485 40.9282 16.6792C40.9857 16.8734 41.0146 17.0875 41.0149 17.3217V17.6307H38.884C38.8912 17.7333 38.9091 17.8304 38.9375 17.9221C38.9775 18.0422 39.0354 18.1473 39.1113 18.2374C39.1875 18.3273 39.2798 18.3984 39.3881 18.4507C39.4958 18.5006 39.6188 18.5256 39.757 18.5256C39.9313 18.5256 40.0865 18.4905 40.2226 18.4203C40.3588 18.3501 40.4767 18.2511 40.5765 18.1231L40.9577 18.4925C40.8803 18.6023 40.7884 18.7012 40.6845 18.7865C40.5726 18.8788 40.4356 18.9538 40.2734 19.0116C40.0939 19.0728 39.905 19.1023 39.7153 19.0987ZM38.9285 16.9523C38.9163 17.0048 38.9064 17.0578 38.8989 17.1112H40.3002V17.0544C40.2977 16.9286 40.2714 16.8043 40.2226 16.6883C40.1795 16.5775 40.1054 16.4814 40.0094 16.4114C39.9132 16.3418 39.785 16.3071 39.625 16.3071C39.5049 16.3071 39.3978 16.3329 39.3037 16.3846C39.2092 16.4369 39.1295 16.5123 39.0723 16.6038C39.006 16.7115 38.9574 16.8292 38.9285 16.9523Z" fill="white"/>
<path d="M47.6246 18.9881C47.7627 18.9219 47.8844 18.8262 47.9813 18.7077L47.9999 19.0389H48.6842V15.7903H47.9577V18.1218C47.9071 18.232 47.827 18.3261 47.7263 18.3937C47.6083 18.4735 47.4463 18.5134 47.2403 18.5134C47.1711 18.5139 47.1022 18.5038 47.0361 18.4835C46.9725 18.4637 46.9147 18.4287 46.8677 18.3814C46.8161 18.3276 46.7772 18.263 46.7538 18.1921C46.7233 18.0961 46.7091 17.9956 46.7116 17.8949V15.7903H45.9883V17.889C45.9883 18.1032 46.0143 18.2874 46.0664 18.4417C46.1184 18.596 46.1915 18.721 46.2855 18.8166C46.3814 18.9128 46.4954 18.9838 46.6276 19.0298C46.7598 19.0758 46.905 19.0988 47.0628 19.0988C47.281 19.0988 47.4682 19.0619 47.6246 18.9881ZM51.1546 16.319V15.7898H50.5751V14.9944H49.8518V15.7898H49.3231V16.3185H49.8518V18.1858C49.8518 18.4081 49.8878 18.5863 49.9598 18.7204C50.0318 18.8547 50.1319 18.9516 50.2602 19.0112C50.3881 19.0693 50.5351 19.0984 50.7013 19.0984C50.8035 19.0984 50.8936 19.0914 50.9717 19.0775C51.0516 19.0636 51.1216 19.0476 51.1818 19.0294L51.1786 18.4771C51.0947 18.4942 51.0093 18.5033 50.9236 18.5044C50.8537 18.5044 50.7926 18.4953 50.7403 18.4771C50.6877 18.4583 50.644 18.4208 50.6173 18.3719C50.5891 18.318 50.5751 18.2409 50.5751 18.1404V16.3185L51.1546 16.319ZM53.5741 18.9881C53.7163 18.9185 53.8354 18.825 53.9313 18.7077L53.9494 19.0389H54.6342V15.7903H53.9077V18.1218C53.8568 18.2319 53.7768 18.3259 53.6762 18.3937C53.5583 18.4735 53.3961 18.5134 53.1898 18.5134C53.1178 18.5134 53.0497 18.5034 52.9856 18.4835C52.9221 18.4636 52.8645 18.4286 52.8177 18.3814C52.7659 18.3276 52.7268 18.263 52.7033 18.1921C52.673 18.0961 52.6589 17.9956 52.6616 17.8949V15.7903H51.9378V17.889C51.9378 18.1032 51.9639 18.2874 52.0159 18.4417C52.0679 18.596 52.141 18.721 52.2351 18.8166C52.3312 18.9128 52.4454 18.9838 52.5776 19.0298C52.7096 19.0758 52.8546 19.0988 53.0128 19.0988C53.231 19.0988 53.418 19.0619 53.5741 18.9881ZM56.3417 16.8186V19.0389H55.6185V15.7903H56.3091L56.3295 16.1719L56.3417 16.1506C56.4241 16.0187 56.5262 15.9157 56.6481 15.8415C56.7721 15.7675 56.9152 15.7304 57.0773 15.7304C57.1215 15.7304 57.1686 15.7343 57.2184 15.7422C57.2705 15.7504 57.3095 15.7594 57.3355 15.7694L57.3296 16.4419C57.2324 16.4262 57.1341 16.4181 57.0356 16.4179C56.9116 16.4179 56.8025 16.436 56.7084 16.4723C56.6263 16.501 56.5513 16.5466 56.4881 16.6063C56.4249 16.666 56.3751 16.7383 56.3417 16.8186Z" fill="white"/>
<path fill-rule="evenodd" clip-rule="evenodd" d="M59.4013 19.0988C59.1611 19.0988 58.9439 19.0598 58.7497 18.9817C58.5644 18.9059 58.3967 18.7925 58.2573 18.6487C58.122 18.5037 58.0168 18.3332 57.9479 18.1473C57.8749 17.9482 57.8384 17.7376 57.8399 17.5256V17.4058C57.8399 17.1516 57.8769 16.9214 57.9511 16.7151C58.0249 16.5091 58.1279 16.3331 58.2601 16.187C58.3892 16.0404 58.5493 15.9244 58.7289 15.8475C58.9137 15.7684 59.1131 15.7285 59.3142 15.7304C59.5462 15.7304 59.7494 15.7694 59.9237 15.8475C60.0979 15.9255 60.2421 16.0357 60.3561 16.1779C60.472 16.3179 60.5579 16.485 60.6138 16.6792C60.6719 16.8735 60.7009 17.0877 60.7009 17.3218V17.6308H58.57C58.5773 17.7334 58.5951 17.8305 58.6235 17.9222C58.6635 18.0423 58.7216 18.1474 58.7978 18.2376C58.8735 18.3274 58.9654 18.3985 59.0737 18.4508C59.182 18.5008 59.3051 18.5257 59.4431 18.5257C59.6045 18.5288 59.7643 18.4927 59.9087 18.4205C60.0448 18.3503 60.1628 18.2511 60.2626 18.1232L60.6442 18.4926C60.5668 18.6024 60.4749 18.7013 60.371 18.7866C60.2479 18.8849 60.1087 18.9611 59.9595 19.0117C59.7799 19.073 59.591 19.1024 59.4013 19.0988ZM58.6145 16.9525C58.6023 17.005 58.5925 17.0579 58.585 17.1112H59.9867V17.0546C59.984 16.9287 59.9575 16.8044 59.9087 16.6883C59.8655 16.5776 59.7914 16.4815 59.6954 16.4115C59.5991 16.342 59.4711 16.3071 59.311 16.3071C59.1909 16.3071 59.0839 16.3331 58.9898 16.3848C58.8975 16.435 58.8205 16.508 58.7588 16.604C58.6916 16.7113 58.6428 16.829 58.6145 16.9525ZM63.1382 17.3817V17.4507C63.1382 17.6848 63.1722 17.9021 63.2403 18.1024C63.3084 18.302 63.4075 18.4772 63.5377 18.6278C63.6679 18.776 63.8254 18.892 64.0116 18.9759C64.2003 19.0578 64.4137 19.0988 64.6513 19.0988C64.8877 19.0988 65.0986 19.058 65.2853 18.9763C65.4709 18.8919 65.629 18.7758 65.7593 18.6278C65.8921 18.4739 65.9931 18.2954 66.0566 18.1024C66.1246 17.9021 66.1589 17.6848 66.1589 17.4507V17.3817C66.1589 17.1476 66.1246 16.9304 66.0566 16.7301C65.9937 16.5368 65.8927 16.3582 65.7593 16.2046C65.6284 16.0539 65.4651 15.9349 65.2822 15.8565C65.0808 15.7699 64.8641 15.7269 64.645 15.7304C64.4093 15.7304 64.1971 15.7725 64.009 15.8565C63.8229 15.9386 63.6647 16.0546 63.5345 16.2046C63.4028 16.3587 63.3028 16.5373 63.2403 16.7301C63.1722 16.9304 63.1382 17.1476 63.1382 17.3817ZM63.8623 17.4507V17.3817C63.8623 17.2374 63.8769 17.1013 63.9068 16.9733C63.9341 16.8511 63.9817 16.7344 64.0478 16.6285C64.112 16.5283 64.1933 16.4501 64.2911 16.3939C64.3909 16.3357 64.509 16.3067 64.645 16.3067C64.7816 16.3067 64.8985 16.3357 64.9963 16.3939C65.0967 16.4501 65.1793 16.5282 65.2428 16.628C65.3089 16.7278 65.3571 16.843 65.387 16.9733C65.4188 17.1013 65.4346 17.2374 65.4346 17.3817V17.4507C65.4346 17.5968 65.4188 17.7349 65.387 17.865C65.3571 17.9951 65.3101 18.1092 65.246 18.2072C65.1843 18.3033 65.0992 18.3828 64.9995 18.4386C64.8934 18.4971 64.7733 18.5261 64.6513 18.5225C64.5135 18.5225 64.394 18.4945 64.2943 18.4386C64.1946 18.3827 64.1101 18.3032 64.0478 18.2072C63.9811 18.1024 63.9334 17.9865 63.9068 17.865C63.8763 17.7291 63.861 17.5901 63.8623 17.4507Z" fill="white"/>
<path d="M67.9839 19.0388H67.2603V16.3189H66.7622V15.7898H67.2603V15.4776C67.2603 15.2356 67.3054 15.0324 67.3956 14.8681C67.4877 14.7017 67.6192 14.5766 67.7888 14.4929C67.9591 14.4066 68.1605 14.3637 68.3924 14.364C68.4642 14.364 68.5353 14.369 68.6052 14.3789C68.6757 14.3868 68.7437 14.3998 68.8098 14.418L68.792 14.9761C68.7481 14.966 68.7043 14.959 68.6592 14.9553C68.6096 14.9512 68.5595 14.9492 68.5099 14.9494C68.3994 14.9494 68.3041 14.9704 68.224 15.0125C68.1471 15.0514 68.0843 15.1132 68.0442 15.1895C68.0017 15.2795 67.9813 15.3781 67.9839 15.4776V15.7898H68.6535V16.3184H67.9839V19.0388ZM71.9132 16.7037V19.0388H71.1896V15.7903H71.8712L71.8941 16.1564C72.0002 16.0233 72.1298 15.9205 72.2823 15.8479C72.4449 15.7692 72.6323 15.73 72.8439 15.7303C72.9925 15.7303 73.1272 15.7524 73.2492 15.7966C73.3737 15.8383 73.4804 15.9054 73.5707 15.9976C73.6374 16.0642 73.6926 16.1448 73.7365 16.2395C73.7555 16.2123 73.7752 16.1856 73.7955 16.1596C73.9042 16.0256 74.037 15.9205 74.1952 15.8443C74.3654 15.7652 74.5509 15.7261 74.739 15.7303C74.9048 15.7303 75.0528 15.7533 75.183 15.7993C75.3152 15.8435 75.427 15.9135 75.5191 16.0094C75.6112 16.1053 75.6811 16.2304 75.7294 16.3847C75.7777 16.5368 75.8012 16.7211 75.8012 16.9374V19.0388H75.075V16.9342C75.075 16.7699 75.0509 16.6429 75.0026 16.553C74.9626 16.4682 74.8914 16.4018 74.8044 16.367C74.718 16.3307 74.6151 16.3125 74.4956 16.3125C74.3832 16.3125 74.2841 16.3337 74.1983 16.3761C74.1145 16.4156 74.0414 16.4742 73.9849 16.5471C73.9271 16.6199 73.8826 16.7027 73.854 16.7913C73.8553 16.8185 73.8559 16.8462 73.8559 16.8743V19.0388H73.1323V16.9378C73.1323 16.7796 73.1082 16.6556 73.0599 16.5658C73.0186 16.4796 72.9468 16.4113 72.8591 16.3733C72.7619 16.3309 72.6558 16.3105 72.5497 16.3134C72.4138 16.3134 72.2975 16.3395 72.2016 16.3915C72.1082 16.443 72.0288 16.5161 71.9704 16.6048C71.9488 16.6362 71.9303 16.6692 71.9132 16.7037Z" fill="white"/>
<path fill-rule="evenodd" clip-rule="evenodd" d="M76.6476 17.4507V17.3817C76.6476 17.1476 76.6813 16.9304 76.7492 16.7301C76.8172 16.5283 76.9157 16.3531 77.0434 16.2046C77.173 16.0543 77.3356 15.9353 77.5179 15.8565C77.7187 15.7699 77.9353 15.7269 78.1545 15.7304C78.3927 15.7304 78.6049 15.7725 78.7911 15.8565C78.9791 15.9386 79.1379 16.0546 79.2682 16.2046C79.3984 16.3528 79.4975 16.528 79.5655 16.7301C79.6335 16.9304 79.6678 17.1476 79.6678 17.3817V17.4507C79.6678 17.6848 79.6335 17.9021 79.5655 18.1024C79.4975 18.302 79.3984 18.4772 79.2682 18.6278C79.1373 18.777 78.9753 18.8958 78.7936 18.9759C78.6075 19.0578 78.3966 19.0988 78.1602 19.0988C77.941 19.1026 77.7231 19.0609 77.5211 18.9763C77.3394 18.8961 77.1774 18.7772 77.0466 18.6278C76.9138 18.4739 76.8128 18.2954 76.7492 18.1024C76.6794 17.8923 76.6451 17.6721 76.6476 17.4507ZM77.3706 17.3817V17.4507C77.3706 17.5968 77.3858 17.7349 77.4157 17.865C77.4462 17.9951 77.4932 18.1092 77.5567 18.2072C77.6209 18.3055 77.7028 18.3826 77.8032 18.4386C77.9029 18.4945 78.0217 18.5225 78.1602 18.5225C78.2943 18.5225 78.4105 18.4945 78.509 18.4386C78.6081 18.3827 78.6926 18.3032 78.7549 18.2072C78.8216 18.1024 78.8699 17.9865 78.8959 17.865C78.9277 17.7349 78.9442 17.5968 78.9442 17.4507V17.3817C78.9442 17.2374 78.9277 17.1013 78.8959 16.9733C78.8692 16.8506 78.8203 16.7338 78.7517 16.6285C78.6913 16.5306 78.6062 16.4499 78.5058 16.3939C78.3985 16.3336 78.2771 16.3035 78.1545 16.3067C78.0179 16.3067 77.9004 16.3357 77.8 16.3939C77.7009 16.4509 77.6177 16.5312 77.5567 16.628C77.4932 16.7278 77.4462 16.843 77.4157 16.9733C77.3852 17.1073 77.3699 17.2443 77.3706 17.3817Z" fill="white"/>
<path d="M81.2314 16.7305V19.0389H80.5078V15.7903H81.1895L81.213 16.1819L81.2282 16.1628C81.3388 16.0273 81.4785 15.9183 81.6367 15.8443C81.8019 15.7667 81.983 15.7277 82.1653 15.7303C82.3209 15.7303 82.4626 15.7525 82.5884 15.7966C82.7167 15.8383 82.826 15.9073 82.9156 16.0035C83.0077 16.0998 83.0782 16.2249 83.1265 16.3788C83.1741 16.531 83.1976 16.7181 83.1976 16.9401V19.0389H82.4715V16.9379C82.4715 16.7818 82.4486 16.6586 82.4023 16.5685C82.3635 16.4816 82.2943 16.4121 82.2072 16.3734C82.1081 16.3301 82.0001 16.3097 81.8921 16.3135C81.7676 16.3135 81.6571 16.3395 81.5586 16.3915C81.4608 16.4433 81.3763 16.5162 81.3096 16.6048C81.281 16.6442 81.2549 16.686 81.2314 16.7305Z" fill="white"/>
<path fill-rule="evenodd" clip-rule="evenodd" d="M85.6085 19.0987C85.3855 19.1021 85.1644 19.0623 84.9573 18.9817C84.7718 18.9057 84.6041 18.7923 84.4649 18.6486C84.3296 18.5035 84.2242 18.3332 84.1549 18.1471C84.0825 17.948 84.0456 17.7375 84.0469 17.5254V17.4056C84.0469 17.1515 84.0844 16.9213 84.1581 16.715C84.2324 16.509 84.3353 16.3329 84.4675 16.1868C84.5964 16.0403 84.7565 15.9244 84.9357 15.8474C85.1206 15.7682 85.32 15.7284 85.5208 15.7303C85.7533 15.7303 85.9566 15.7693 86.1307 15.8474C86.3047 15.9254 86.4489 16.0355 86.5627 16.1777C86.6789 16.3178 86.7653 16.485 86.8212 16.6792C86.879 16.8734 86.9083 17.0875 86.9083 17.3217V17.6307H84.7775C84.7845 17.7333 84.8023 17.8304 84.8309 17.9221C84.8709 18.0422 84.9287 18.1473 85.0049 18.2374C85.0812 18.3273 85.1733 18.3984 85.2813 18.4507C85.3893 18.5006 85.5119 18.5256 85.6504 18.5256C85.8245 18.5256 85.9795 18.4905 86.1154 18.4203C86.2514 18.3501 86.3695 18.2511 86.4699 18.1231L86.8511 18.4925C86.7736 18.6023 86.6815 18.7012 86.5779 18.7865C86.4547 18.8847 86.3155 18.9609 86.1669 19.0116C85.9871 19.0729 85.7978 19.1024 85.6085 19.0987ZM84.822 16.9523C84.8099 17.0048 84.7997 17.0578 84.7921 17.1112H86.1936V17.0544C86.191 16.9285 86.1643 16.8043 86.1154 16.6883C86.0722 16.5775 85.9985 16.4815 85.9026 16.4114C85.8067 16.3418 85.6783 16.3071 85.5182 16.3071C85.3982 16.3071 85.2908 16.3329 85.1968 16.3846C85.1047 16.4349 85.0278 16.508 84.9655 16.6038C84.8995 16.7115 84.8506 16.8292 84.822 16.9523Z" fill="white"/>
<path d="M88.4849 19.0308L87.335 15.7908H88.1151L88.8196 18.0097L89.4962 15.7908H90.2707L88.9677 19.5344C88.9334 19.6234 88.8946 19.7105 88.8508 19.7954C88.8006 19.893 88.7371 19.9831 88.6615 20.0631C88.5852 20.149 88.4906 20.218 88.3768 20.27C88.2625 20.3239 88.124 20.3508 87.9626 20.3508C87.8985 20.3508 87.8362 20.3447 87.7759 20.3327C87.7206 20.3232 87.6653 20.3124 87.6107 20.3L87.6081 19.7473C87.6558 19.7516 87.7041 19.7546 87.7517 19.7563C87.854 19.7593 87.9557 19.7441 88.0522 19.7114C88.1297 19.686 88.1977 19.6379 88.2472 19.5735C88.2993 19.5093 88.3432 19.4231 88.3794 19.3148L88.4849 19.0308Z" fill="white"/>
</g>
</svg>
