<svg width="115" height="29" viewBox="0 0 115 29" fill="none" xmlns="http://www.w3.org/2000/svg">
<mask id="mask0_10293_6249" style="mask-type:luminance" maskUnits="userSpaceOnUse" x="0" y="0" width="115" height="29">
<path d="M115 0H0V28.0181H115V0Z" fill="white"/>
</mask>
<g mask="url(#mask0_10293_6249)">
<path fill-rule="evenodd" clip-rule="evenodd" d="M9.04678 19.6126C12.1691 22.7927 17.217 22.7927 20.3255 19.6126L25.9648 13.8689L28.4407 16.3905V22.4144C28.4407 25.5104 25.9785 28.0181 22.9388 28.0181H6.43346C3.39369 28.0181 0.931641 25.5104 0.931641 22.4144V16.3905L3.40745 13.8689L9.04678 19.6126Z" fill="#D8D8D8"/>
<path fill-rule="evenodd" clip-rule="evenodd" d="M28.4407 16.3906L20.3255 8.12523C17.2032 4.94516 12.1553 4.94516 9.04678 8.12523L0.931641 16.3906V5.60359C0.931641 2.50761 3.39369 0 6.43346 0H22.9388C25.9785 0 28.4407 2.50761 28.4407 5.60359V16.3906Z" fill="#9E9E9E"/>
<path fill-rule="evenodd" clip-rule="evenodd" d="M20.3248 8.1249L25.9641 13.8686L20.3248 19.6123C17.2025 22.7923 12.1546 22.7923 9.04612 19.6123L3.40674 13.8686L9.04612 8.1249C12.1546 4.95885 17.2163 4.95885 20.3248 8.1249Z" fill="white"/>
<path d="M16.3934 15.1853L19.0342 16.6983C18.1402 18.1972 16.5309 19.1919 14.6878 19.1919C11.8819 19.1919 9.59863 16.8664 9.59863 14.0085C9.59863 11.1507 11.8819 8.8252 14.6878 8.8252C16.4621 8.8252 18.0164 9.74982 18.9379 11.1507L16.2833 12.6637C15.8982 12.2014 15.3342 11.9072 14.6878 11.9072C13.5462 11.9072 12.6246 12.8458 12.6246 14.0085C12.6246 15.1713 13.5462 16.1099 14.6878 16.1099C15.403 16.1099 16.022 15.7457 16.3934 15.1853Z" fill="black"/>
<path d="M62.0674 9.55291H64.3368V7.71775L63.1951 7.0033L62.0674 7.71775V9.55291Z" fill="#D8D8D8"/>
<path fill-rule="evenodd" clip-rule="evenodd" d="M114.442 12.2988L112.943 13.7978C112.337 13.1954 111.787 12.8872 111.292 12.8872C111.017 12.8872 110.811 12.9432 110.66 13.0553C110.508 13.1674 110.426 13.3215 110.426 13.4896C110.426 13.6157 110.481 13.7418 110.577 13.8538C110.673 13.9659 110.921 14.12 111.292 14.3021L112.173 14.7504C113.108 15.2127 113.74 15.689 114.084 16.1653C114.428 16.6416 114.607 17.202 114.607 17.8604C114.607 18.715 114.291 19.4434 113.672 20.0178C113.039 20.5922 112.2 20.8864 111.155 20.8864C109.752 20.8864 108.638 20.34 107.798 19.2333L109.284 17.6082C109.573 17.9445 109.903 18.2106 110.274 18.4068C110.66 18.6169 110.99 18.715 111.292 18.715C111.595 18.715 111.87 18.6309 112.062 18.4768C112.255 18.3227 112.351 18.1406 112.351 17.9445C112.351 17.5662 112.007 17.202 111.306 16.8517L110.494 16.4455C108.94 15.661 108.156 14.6663 108.156 13.4896C108.156 12.7191 108.445 12.0747 109.036 11.5283C109.628 10.982 110.371 10.7158 111.278 10.7158C111.897 10.7158 112.489 10.8559 113.039 11.1361C113.589 11.4163 114.057 11.7805 114.442 12.2988Z" fill="white"/>
<path fill-rule="evenodd" clip-rule="evenodd" d="M106.488 12.2987L104.989 13.7977C104.384 13.1953 103.833 12.8871 103.338 12.8871C103.063 12.8871 102.857 12.9431 102.706 13.0552C102.554 13.1673 102.472 13.3214 102.472 13.4895C102.472 13.6156 102.527 13.7416 102.623 13.8537C102.719 13.9658 102.967 14.1199 103.338 14.302L104.218 14.7503C105.154 15.2126 105.787 15.6889 106.131 16.1652C106.474 16.6415 106.653 17.2018 106.653 17.8603C106.653 18.7148 106.337 19.4433 105.718 20.0177C105.085 20.592 104.246 20.8862 103.201 20.8862C101.798 20.8862 100.684 20.3399 99.8447 19.2332L101.33 17.5941C101.619 17.9303 101.949 18.1965 102.32 18.3926C102.705 18.6028 103.036 18.7008 103.338 18.7008C103.641 18.7008 103.916 18.6167 104.109 18.4627C104.302 18.3086 104.398 18.1264 104.398 17.9303C104.398 17.5521 104.054 17.1878 103.352 16.8376L102.541 16.4313C100.986 15.6469 100.202 14.6522 100.202 13.4755C100.202 12.705 100.491 12.0605 101.083 11.5142C101.674 10.9679 102.417 10.7017 103.325 10.7017C103.943 10.7017 104.535 10.8418 105.085 11.1219C105.635 11.4021 106.103 11.7804 106.488 12.2987Z" fill="white"/>
<path d="M55.1416 13.0556C54.4675 13.0556 53.9032 13.2798 53.3672 13.7701C52.7484 14.3444 52.473 14.9749 52.473 15.8294C52.473 16.6279 52.7207 17.2443 53.2573 17.7907C53.7933 18.337 54.385 18.5892 55.1553 18.5892C55.6914 18.5892 56.1594 18.4631 56.5856 18.225C56.9983 17.9868 57.3143 17.6646 57.5623 17.2163C57.81 16.768 57.9336 16.3197 57.9336 15.8014C57.9336 15.2831 57.81 14.8488 57.5757 14.4285C57.3419 14.0082 57.012 13.686 56.5716 13.4199C56.1041 13.1817 55.6366 13.0556 55.1416 13.0556ZM55.1416 10.7441C56.0356 10.7441 56.8884 10.9683 57.6861 11.4306C58.4836 11.8929 59.1024 12.5093 59.5428 13.2938C59.9829 14.0783 60.2032 14.9188 60.2032 15.8294C60.2032 16.74 59.9829 17.5945 59.5291 18.3931C59.0753 19.1916 58.4699 19.808 57.6996 20.2563C56.9298 20.7045 56.0767 20.9287 55.1553 20.9287C53.7933 20.9287 52.6245 20.4383 51.6476 19.4438C50.6711 18.4491 50.2036 17.2583 50.2036 15.8434C50.2036 14.3304 50.7536 13.0696 51.8405 12.061C52.7892 11.1925 53.8898 10.7441 55.1416 10.7441Z" fill="white"/>
<path d="M96.3302 16.5714H91.0762C91.1861 17.0197 91.4199 17.398 91.7775 17.7622C92.3141 18.3086 92.9055 18.5607 93.6755 18.5607C94.2121 18.5607 94.6796 18.4347 95.1063 18.1965C95.3261 18.0704 95.5325 17.9163 95.6974 17.7342H98.3521C98.2699 17.9443 98.1737 18.1404 98.0633 18.3506C97.6095 19.1491 97.0044 19.7655 96.234 20.2138C95.4637 20.6621 94.6111 20.8862 93.6895 20.8862C92.3278 20.8862 91.1587 20.3959 90.182 19.4013C89.219 18.4206 88.7378 17.2158 88.7378 15.801C88.7378 14.288 89.2881 13.0272 90.3744 12.0185C91.3377 11.1359 92.4377 10.7017 93.6755 10.7017C94.5697 10.7017 95.4223 10.9258 96.2203 11.3881C97.0181 11.8504 97.6371 12.4668 98.077 13.2513C98.5174 14.0358 98.7374 14.8764 98.7374 15.7869C98.7374 16.0531 98.7234 16.3193 98.6826 16.5854H96.3302V16.5714ZM96.1241 14.4981C96.1102 14.4701 96.0964 14.4421 96.0688 14.4001C95.835 13.9798 95.5051 13.6576 95.0649 13.3914C94.6111 13.1252 94.157 13.0132 93.6481 13.0132C92.9743 13.0132 92.4103 13.2373 91.8737 13.7276C91.6123 13.9658 91.4199 14.2179 91.2686 14.4841H96.1241V14.4981Z" fill="white"/>
<path d="M49.3287 9.58091L47.403 11.206C47.0593 10.7997 46.6466 10.4495 46.1238 10.1553C45.3811 9.73503 44.6108 9.53888 43.7582 9.53888C42.6165 9.53888 41.6535 9.91715 40.7596 10.7016C39.7555 11.5982 39.3017 12.6209 39.3017 13.9517C39.3017 15.1846 39.7141 16.1651 40.5806 17.0337C41.4749 17.9163 42.479 18.3365 43.7582 18.3365C44.6521 18.3365 45.4222 18.1404 46.1377 17.7342C46.6327 17.454 47.0317 17.1178 47.3753 16.6975L49.315 18.3085C48.7784 18.981 48.1183 19.5273 47.3616 19.9616C46.289 20.564 45.0922 20.8722 43.7853 20.8722C41.8602 20.8722 40.223 20.1998 38.8613 18.8549C37.4998 17.51 36.8257 15.8709 36.8257 13.9517C36.8257 11.8924 37.596 10.1693 39.1364 8.79641C40.4708 7.60568 42.0249 7.0033 43.7719 7.0033C45.0374 7.0033 46.2199 7.31149 47.3339 7.94189C48.1183 8.37618 48.7921 8.92248 49.3287 9.58091Z" fill="white"/>
<path fill-rule="evenodd" clip-rule="evenodd" d="M62.0674 10.7017H64.3368V20.8722H62.0674V10.7017Z" fill="white"/>
<path fill-rule="evenodd" clip-rule="evenodd" d="M71.5053 10.7441C73.6648 10.7441 74.8201 12.3412 74.8201 14.2184V20.9287H72.5508V15.185C72.5508 13.9802 72.0693 12.8315 70.6801 12.8175C69.7446 12.8175 68.6854 13.7701 68.6854 15.157V20.9287H66.416V10.7441H68.6854V12.089C69.3182 11.3325 70.3913 10.7441 71.5053 10.7441Z" fill="white"/>
<path fill-rule="evenodd" clip-rule="evenodd" d="M84.8414 20.8717L79.34 12.4243V20.8717H77.0566V7.92737H79.1057L84.6077 16.585V7.92737H86.891V20.8717H84.8414Z" fill="white"/>
</g>
</svg>
