<svg width="134" height="27" viewBox="0 0 134 27" fill="none" xmlns="http://www.w3.org/2000/svg">
<path d="M33.518 12.3315C33.4102 12.6949 33.3571 13.0654 33.3571 13.4416C33.3571 13.8049 33.4102 14.1611 33.518 14.5115C33.6257 14.8619 33.7908 15.1764 34.012 15.4593C34.2346 15.7422 34.5132 15.9705 34.8492 16.1457C35.1852 16.3209 35.583 16.4071 36.0397 16.4071C36.5107 16.4071 36.9401 16.3166 37.3307 16.1343C37.7213 15.9519 38.0502 15.7063 38.3188 15.3975L39.7318 16.9313C39.2881 17.4023 38.7625 17.7786 38.1579 18.0615C37.5533 18.3444 36.8453 18.4851 36.0397 18.4851C35.2341 18.4851 34.5132 18.363 33.8798 18.1218C33.248 17.8791 32.7152 17.5359 32.2844 17.0921C31.8535 16.6484 31.5232 16.117 31.2963 15.4966C31.0666 14.8791 30.9531 14.1927 30.9531 13.4387C30.9531 12.7523 31.0766 12.1032 31.3265 11.4914C31.5749 10.8797 31.921 10.3454 32.3662 9.88733C32.81 9.43066 33.3456 9.0659 33.9703 8.79735C34.5964 8.5288 35.2858 8.39381 36.0383 8.39381C36.8051 8.39381 37.5045 8.53167 38.1378 8.8074C38.7697 9.08312 39.3082 9.45651 39.752 9.92754L38.2383 11.4613C37.9683 11.1525 37.6524 10.9098 37.2905 10.7346C36.9272 10.5608 36.5107 10.4732 36.0383 10.4732C35.5816 10.4732 35.1838 10.558 34.8478 10.726C34.5117 10.8955 34.2317 11.1123 34.0105 11.3808C33.7908 11.6523 33.6257 11.9682 33.518 12.3315ZM45.8093 8.53742C45.4187 8.53742 45.0726 8.58481 44.7696 8.67815C44.4666 8.77293 44.2009 8.88782 43.9726 9.02138C43.7428 9.15637 43.5446 9.30428 43.378 9.46512C43.2086 9.62596 43.0722 9.77388 42.9645 9.90887L42.9041 8.71836H40.6222V18.1835H43.0047V13.0783C43.0047 12.7293 43.0678 12.4119 43.1971 12.1305C43.3249 11.8476 43.4958 11.6049 43.7112 11.4038C43.9266 11.2028 44.1822 11.0477 44.4781 10.94C44.7739 10.8323 45.0827 10.7791 45.4058 10.7791C45.6355 10.7791 45.8337 10.7921 46.0003 10.8193C46.1683 10.8466 46.3335 10.894 46.4943 10.9601L46.9783 8.7198C46.7901 8.6523 46.6049 8.60635 46.424 8.57906C46.243 8.55178 46.0376 8.53742 45.8093 8.53742ZM52.7915 15.1979L50.0874 8.7198H47.343L51.601 18.1045L51.298 18.8714C51.0682 19.4372 50.8514 19.8537 50.6431 20.1237C50.4349 20.3922 50.1692 20.5272 49.8461 20.5272C49.6034 20.5272 49.4024 20.4769 49.2415 20.3764C49.0807 20.2759 48.9328 20.1711 48.7978 20.0633L47.7279 21.7378C47.9965 21.9676 48.3095 22.1442 48.6657 22.272C49.0218 22.3998 49.4684 22.4645 50.007 22.4645C50.6245 22.4645 51.1371 22.3295 51.5407 22.0609C51.9442 21.7909 52.2831 21.4449 52.5603 21.0212C52.836 20.5976 53.0672 20.1366 53.2568 19.6397C53.4449 19.1414 53.633 18.6574 53.8226 18.1864L57.779 8.72124H55.1754L52.7915 15.1979ZM67.8071 11.6652C67.9809 12.2569 68.0685 12.8701 68.0685 13.5019C68.0685 14.2415 67.9608 14.8748 67.7453 15.399C67.5299 15.9246 67.2614 16.3813 66.9383 16.7719C66.3997 17.4181 65.811 17.8676 65.1719 18.1246C64.5328 18.3803 63.8766 18.5081 63.2045 18.5081C62.8943 18.5081 62.6286 18.4952 62.4075 18.4679C62.1849 18.4406 61.9838 18.4047 61.8029 18.3573C61.6205 18.3099 61.4539 18.2568 61.2988 18.1965C61.1437 18.1361 60.9786 18.0729 60.8048 18.004V22.2218H58.4439V8.71836H60.7445L60.8048 9.78824C60.9254 9.65325 61.0777 9.51251 61.2586 9.3646C61.441 9.21668 61.655 9.08169 61.9048 8.96106C62.1533 8.84043 62.4362 8.73847 62.7521 8.65805C63.0681 8.57763 63.4213 8.53742 63.8119 8.53742C64.5386 8.53742 65.1662 8.67815 65.6989 8.96106C66.2303 9.24397 66.6712 9.61591 67.0216 10.0812C67.3691 10.5451 67.6319 11.0735 67.8071 11.6652ZM65.6673 13.5034C65.6673 13.0998 65.6228 12.7236 65.5352 12.3732C65.4476 12.0228 65.3055 11.7183 65.1116 11.4541C64.9163 11.1927 64.665 10.9845 64.3548 10.828C64.0446 10.6729 63.6626 10.5953 63.2045 10.5953C62.8412 10.5953 62.5123 10.6729 62.2165 10.828C61.9206 10.9831 61.6679 11.1812 61.4596 11.4225C61.2514 11.6652 61.0891 11.9294 60.9757 12.2195C60.8622 12.5096 60.8048 12.7882 60.8048 13.0567V15.8614C61.2758 16.252 61.9881 16.4473 62.9445 16.4473C63.3754 16.4473 63.7588 16.3626 64.0948 16.1946C64.4309 16.0265 64.7181 15.804 64.9536 15.5282C65.1891 15.2525 65.3672 14.9394 65.4878 14.5905C65.607 14.2429 65.6673 13.8782 65.6673 13.5034ZM74.5581 16.308C74.3369 16.4157 74.0368 16.4689 73.6605 16.4689C73.257 16.4689 72.964 16.3238 72.7831 16.0352C72.6021 15.7465 72.5117 15.3329 72.5117 14.7944V10.6571H75.055V8.7198H72.5117V5.65234H70.1292V8.7198H68.5151V10.6571H70.1292V14.9567C70.1292 15.4823 70.1824 15.9634 70.2901 16.3985C70.3978 16.8365 70.5758 17.2099 70.8243 17.5186C71.0727 17.8288 71.4002 18.0672 71.8037 18.2352C72.2072 18.4032 72.6984 18.488 73.2771 18.488C73.8429 18.488 74.3542 18.4032 74.8108 18.2352C75.2675 18.0672 75.7328 17.7886 76.2024 17.398L75.1943 15.9231C74.9903 16.0725 74.7792 16.2003 74.5581 16.308ZM86.0969 11.4943C86.3454 12.1075 86.4703 12.7566 86.4703 13.4416C86.4703 14.1281 86.3454 14.7772 86.0969 15.3889C85.8485 16.0021 85.5024 16.5392 85.0572 17.0031C84.6135 17.4684 84.0778 17.8346 83.4531 18.1031C82.827 18.3717 82.1377 18.5066 81.3852 18.5066C80.6312 18.5066 79.9419 18.3717 79.3172 18.1031C78.6911 17.8346 78.1569 17.4669 77.7131 17.0031C77.2694 16.5392 76.9233 16.0007 76.6734 15.3889C76.425 14.7772 76.3 14.1266 76.3 13.4416C76.3 12.7552 76.4235 12.1061 76.6734 11.4943C76.9219 10.8825 77.2679 10.3483 77.7131 9.8902C78.1569 9.43353 78.6925 9.06877 79.3172 8.80022C79.9419 8.53167 80.6327 8.39668 81.3852 8.39668C82.1377 8.39668 82.827 8.53167 83.4531 8.80022C84.0793 9.0702 84.6135 9.43209 85.0572 9.8902C85.501 10.3469 85.8471 10.8825 86.0969 11.4943ZM84.0692 13.443C84.0692 13.107 84.0161 12.7595 83.9084 12.4033C83.8007 12.0472 83.6355 11.7241 83.4143 11.434C83.1918 11.1439 82.9132 10.9084 82.5771 10.7274C82.2411 10.5451 81.8433 10.4546 81.3866 10.4546C80.9285 10.4546 80.5322 10.5451 80.1961 10.7274C79.8601 10.9098 79.58 11.1453 79.3589 11.434C79.1363 11.7241 78.9726 12.0472 78.8649 12.4033C78.7572 12.7595 78.704 13.107 78.704 13.443C78.704 13.792 78.7572 14.1424 78.8649 14.4914C78.9726 14.8403 79.1377 15.1649 79.3589 15.4607C79.5815 15.7566 79.8601 15.995 80.1961 16.1759C80.5322 16.3583 80.9299 16.4488 81.3866 16.4488C81.8433 16.4488 82.2411 16.3583 82.5771 16.1759C82.9132 15.9935 83.1932 15.7566 83.4143 15.4607C83.6369 15.1649 83.8007 14.8418 83.9084 14.4914C84.0146 14.1424 84.0692 13.792 84.0692 13.443ZM97.2064 8.51731C96.8287 8.51731 96.4927 8.55752 96.1968 8.63794C95.901 8.71836 95.6339 8.8232 95.3998 8.95101C95.1643 9.07882 94.9618 9.21668 94.7952 9.3646C94.6258 9.51251 94.4822 9.65469 94.3615 9.78824L94.3012 8.71836H92.0207V18.1835H94.4032V13.0567C94.4032 12.7078 94.4606 12.3804 94.5755 12.0773C94.689 11.7743 94.8484 11.5101 95.0494 11.2803C95.2505 11.0505 95.4932 10.8739 95.7761 10.7461C96.059 10.6183 96.362 10.5537 96.6851 10.5537C97.2107 10.5537 97.6372 10.7174 97.9661 11.0477C98.2964 11.378 98.4601 11.8447 98.4601 12.4507V18.1821H100.843V12.4306C100.843 11.2344 100.534 10.2808 99.9148 9.5757C99.293 8.87059 98.3897 8.51731 97.2064 8.51731ZM111.112 11.8476C111.273 12.4938 111.355 13.153 111.355 13.825V14.1683H104.292C104.292 14.5172 104.37 14.8346 104.525 15.1161C104.68 15.399 104.881 15.6417 105.129 15.8427C105.378 16.0438 105.661 16.1989 105.977 16.3066C106.292 16.4143 106.606 16.4674 106.914 16.4674C107.371 16.4674 107.772 16.4229 108.116 16.3353C108.459 16.2477 108.752 16.1472 108.994 16.0323C109.235 15.9174 109.435 15.7968 109.588 15.669C109.743 15.5412 109.861 15.4363 109.942 15.3559L111.233 16.8092C111.192 16.8494 111.082 16.96 110.899 17.1424C110.717 17.3248 110.456 17.5158 110.112 17.7182C109.769 17.9193 109.333 18.1017 108.8 18.2625C108.268 18.4234 107.632 18.5052 106.893 18.5052C106.139 18.5052 105.452 18.3774 104.835 18.1218C104.216 17.8662 103.687 17.5129 103.251 17.062C102.813 16.611 102.477 16.0696 102.241 15.4378C102.006 14.8059 101.888 14.1065 101.888 13.3382C101.888 12.6388 102.006 11.9897 102.241 11.3909C102.477 10.7921 102.807 10.2708 103.229 9.82701C103.653 9.38327 104.157 9.03287 104.743 8.77868C105.329 8.52449 105.977 8.39525 106.69 8.39525C107.55 8.39525 108.281 8.55322 108.88 8.86915C109.479 9.18653 109.96 9.59868 110.322 10.1099C110.687 10.624 110.951 11.2028 111.112 11.8476ZM108.912 12.4522C108.912 12.2095 108.864 11.9682 108.771 11.7255C108.676 11.4828 108.538 11.2645 108.358 11.0707C108.175 10.8753 107.944 10.7145 107.661 10.5867C107.378 10.4589 107.056 10.3943 106.692 10.3943C106.301 10.3943 105.955 10.4574 105.652 10.5867C105.349 10.7145 105.098 10.8768 104.895 11.0707C104.693 11.2645 104.539 11.4857 104.43 11.7255C104.322 11.9682 104.269 12.2095 104.269 12.4522H108.912ZM123.443 8.7198L121.647 15.2985L119.629 8.7198H117.632L115.634 15.2985L113.816 8.7198H111.192L114.401 18.185H116.621L118.498 12.4737L120.435 18.185H122.735L125.945 8.7198C125.944 8.7198 123.443 8.7198 123.443 8.7198ZM133.776 14.3406C133.628 14.0103 133.416 13.7245 133.14 13.4818C132.864 13.2391 132.535 13.0381 132.152 12.8772C131.768 12.7164 131.335 12.5814 130.849 12.4737C130.07 12.2856 129.494 12.1075 129.125 11.9395C128.754 11.7715 128.57 11.5388 128.57 11.243C128.57 11.0003 128.681 10.7964 128.903 10.6269C129.126 10.4589 129.518 10.3742 130.084 10.3742C130.65 10.3742 131.139 10.4517 131.557 10.6068C131.974 10.7619 132.31 10.9328 132.567 11.1209L133.798 9.44645C133.327 9.09749 132.799 8.83468 132.214 8.65948C131.628 8.48572 130.918 8.39812 130.085 8.39812C129.614 8.39812 129.148 8.46562 128.682 8.59917C128.218 8.73416 127.801 8.92516 127.43 9.17504C127.06 9.42491 126.761 9.73367 126.532 10.1027C126.303 10.4732 126.189 10.8926 126.189 11.3651C126.189 11.8217 126.287 12.2152 126.482 12.5455C126.678 12.8758 126.926 13.1587 127.229 13.3928C127.532 13.6283 127.858 13.8136 128.208 13.9471C128.557 14.0821 128.895 14.1898 129.218 14.2688C129.744 14.3909 130.16 14.5043 130.47 14.612C130.779 14.7197 131.022 14.8274 131.197 14.9351C131.371 15.0428 131.487 15.1548 131.54 15.2683C131.593 15.3817 131.62 15.5067 131.62 15.6417C131.62 15.9519 131.465 16.173 131.157 16.3066C130.846 16.4416 130.437 16.5076 129.926 16.5076C129.347 16.5076 128.833 16.41 128.382 16.2147C127.931 16.0194 127.558 15.7738 127.262 15.478L125.829 17.0318C126.26 17.5158 126.831 17.882 127.545 18.1318C128.259 18.3803 129.059 18.5052 129.946 18.5052C130.497 18.5052 131.019 18.4348 131.51 18.2941C132.001 18.1534 132.432 17.9538 132.801 17.6996C133.171 17.4439 133.464 17.1323 133.678 16.7618C133.894 16.3913 134 15.9777 134 15.521C133.997 15.0644 133.924 14.6709 133.776 14.3406ZM88.8686 15.399C88.0988 15.399 87.477 16.0222 87.477 16.7905C87.477 17.5603 88.1003 18.1821 88.8686 18.1821C89.6369 18.1821 90.2601 17.5588 90.2601 16.7905C90.2615 16.0222 89.6383 15.399 88.8686 15.399Z" fill="white"/>
<path d="M13.4273 0C6.01284 0 0 6.01284 0 13.4273C0 20.8417 6.01284 26.8546 13.4273 26.8546C20.8417 26.8546 26.8546 20.8417 26.8546 13.4273C26.8546 6.01284 20.8432 0 13.4273 0ZM13.4273 17.5086C14.7772 17.5086 16.0395 16.8408 16.8006 15.7236C17.1123 15.2669 17.7341 15.1491 18.1893 15.4608C18.6446 15.7724 18.7637 16.3942 18.4521 16.8495C17.3176 18.5139 15.4392 19.5091 13.4259 19.5091C10.0741 19.5091 7.34696 16.782 7.34696 13.4316C7.34696 10.0798 10.0741 7.3527 13.4259 7.3527C15.4378 7.3527 17.3176 8.34646 18.4521 10.0123C18.7637 10.469 18.6446 11.0908 18.1893 11.401C17.7326 11.7126 17.1108 11.5934 16.8006 11.1382C16.0395 10.0195 14.7772 9.35315 13.4273 9.35315C11.1784 9.35315 9.34884 11.1827 9.34884 13.4316C9.34884 15.6791 11.1784 17.5086 13.4273 17.5086ZM7.63274 19.0208C9.14636 20.5876 11.1798 21.4621 13.3569 21.4822C15.5398 21.498 17.5819 20.6637 19.1213 19.1242C20.6421 17.6034 21.4808 15.5814 21.4808 13.4316C21.4808 11.2804 20.6436 9.25837 19.1213 7.73901C15.9821 4.59975 10.874 4.59975 7.73326 7.73901C5.79887 9.6734 4.98174 12.4292 5.55043 15.1104C5.59925 15.3416 5.45134 15.5699 5.22013 15.6173C4.98892 15.6661 4.76059 15.5182 4.7132 15.287C4.0842 12.3215 4.98749 9.27273 7.12724 7.13155C10.6011 3.65768 16.2521 3.65768 19.7259 7.13155C23.1998 10.6054 23.1998 16.2564 19.7259 19.7302C18.0414 21.4147 15.8069 22.3396 13.4287 22.3396C13.4029 22.3396 13.3756 22.3396 13.3483 22.3396C10.94 22.318 8.69112 21.3515 7.01666 19.6182C6.85295 19.4488 6.85725 19.1759 7.02815 19.0122C7.1976 18.8456 7.46902 18.8499 7.63274 19.0208ZM6.77396 17.3722C6.77396 17.8461 6.39053 18.2295 5.91662 18.2295C5.44272 18.2295 5.05929 17.8461 5.05929 17.3722C5.05929 16.8983 5.44272 16.5149 5.91662 16.5149C6.39053 16.5149 6.77396 16.8983 6.77396 17.3722ZM18.7192 2.94682C19.1931 2.94682 19.5766 3.33025 19.5766 3.80416C19.5766 4.27806 19.1931 4.6615 18.7192 4.6615C18.2453 4.6615 17.8619 4.27806 17.8619 3.80416C17.8633 3.33025 18.2468 2.94682 18.7192 2.94682ZM21.4966 21.498C19.341 23.6536 16.4746 24.8398 13.4287 24.8398C10.3799 24.8398 7.51498 23.6521 5.35943 21.498C3.20388 19.3425 2.01768 16.4761 2.01768 13.4287C2.01768 10.3814 3.20532 7.51498 5.35943 5.35943C8.16983 2.54903 12.0573 1.43464 16.0223 2.30059C16.2535 2.35085 16.4 2.57919 16.3483 2.8104C16.298 3.04161 16.0697 3.18808 15.8385 3.13639C12.1635 2.33362 8.56331 3.36328 5.96402 5.96258C3.97074 7.95585 2.87359 10.6068 2.87359 13.4259C2.87359 16.2449 3.97074 18.8959 5.96402 20.8891C7.95729 22.8824 10.6083 23.9796 13.4273 23.9796C16.2463 23.9796 18.8973 22.881 20.8906 20.8891C22.8838 18.8959 23.981 16.2449 23.981 13.4259C23.981 10.6241 22.835 7.88692 20.8389 5.91375C20.6694 5.74717 20.6694 5.47575 20.836 5.30773C21.0026 5.13827 21.274 5.13827 21.442 5.30486C23.6004 7.43743 24.8383 10.3972 24.8383 13.4259C24.8398 16.4761 23.6521 19.3425 21.4966 21.498Z" fill="white"/>
</svg>
