<svg width="113" height="26" viewBox="0 0 113 26" fill="none" xmlns="http://www.w3.org/2000/svg">
<path fill-rule="evenodd" clip-rule="evenodd" d="M26.1677 12.7632C26.1718 15.0863 25.5236 17.3659 24.2937 19.3543L22.187 16.4733C22.6915 15.2985 22.9504 14.0371 22.9486 12.7632C22.9485 12.1158 22.8821 11.47 22.7505 10.8355C22.7378 10.7751 22.725 10.7165 22.7105 10.658V10.6366C22.6941 10.5727 22.6796 10.507 22.6614 10.4431C22.6432 10.3792 22.6359 10.3384 22.6214 10.2887C22.5887 10.1716 22.5559 10.0526 22.5178 9.93368L22.4851 9.82898L22.4687 9.77746C22.4323 9.67097 22.3942 9.56448 22.3542 9.45621C22.3269 9.38164 22.2979 9.30886 22.2688 9.23608C22.2397 9.1633 22.2088 9.09052 22.1779 9.01953C22.147 8.94847 22.1143 8.87569 22.0816 8.8047C22.0162 8.66271 21.9471 8.52245 21.8725 8.38398C21.8435 8.32365 21.8107 8.26153 21.7762 8.2065C21.7762 8.2065 21.7671 8.19232 21.7635 8.18345C21.7598 8.17457 21.7635 8.18345 21.7635 8.17457C21.7289 8.10888 21.6908 8.04319 21.6508 7.97749C21.6108 7.9118 21.5726 7.84438 21.529 7.7769C21.4418 7.63492 21.3472 7.49287 21.2527 7.35446C20.729 6.59831 20.096 5.92029 19.3732 5.34144C19.3169 5.29529 19.2587 5.2509 19.2006 5.20653C19.1424 5.16215 19.0624 5.10002 18.9915 5.05032C18.9206 5.00061 18.8643 4.95623 18.8007 4.91363C18.737 4.87103 18.6825 4.8302 18.6189 4.79114C18.5498 4.74322 18.479 4.69884 18.4063 4.65446L18.2572 4.56215L18.11 4.47517C16.8465 3.75087 15.4344 3.30886 13.9752 3.18087C12.5161 3.05289 11.046 3.24211 9.67054 3.73494C8.94344 3.99944 7.4203 4.88878 7.36029 4.9296L5.479 2.36454L5.72257 2.20833C6.35936 1.78471 7.03329 1.417 7.73657 1.10952C9.52779 0.329523 11.4754 -0.0479694 13.4359 0.00487299C15.3964 0.0577154 17.3198 0.539545 19.0642 1.41485C19.1878 1.47698 19.3096 1.54088 19.4277 1.60656L19.6096 1.70952L19.7804 1.80893L19.9495 1.90834C20.0694 1.98112 20.1875 2.05567 20.313 2.132L20.4493 2.22075L20.6456 2.35389L20.8492 2.49945L20.9601 2.57933C21.0237 2.62726 21.0873 2.67342 21.1418 2.72312C21.3073 2.84915 21.469 2.97874 21.6272 3.11365C21.7853 3.24856 21.9398 3.38524 22.0924 3.52548L22.316 3.74027C22.3906 3.81305 22.4632 3.88583 22.536 3.96038C22.6741 4.10062 22.8068 4.24441 22.9377 4.39174C22.994 4.45387 23.0485 4.51778 23.1013 4.57991C23.154 4.64203 23.2103 4.70771 23.2631 4.7734C23.3157 4.83908 23.3503 4.87813 23.3921 4.93138L23.5193 5.09292L23.6429 5.25801C23.6957 5.32723 23.7465 5.39646 23.7956 5.46747C23.8447 5.53847 23.8938 5.60948 23.9428 5.68048C23.9701 5.71776 23.9937 5.75504 24.0192 5.79232C24.0446 5.82959 24.0719 5.86688 24.0937 5.90593L24.2119 6.08344C24.2682 6.17042 24.3228 6.26096 24.3754 6.34793C24.4282 6.43494 24.4518 6.47752 24.4881 6.54322C24.5245 6.60891 24.5645 6.67275 24.6009 6.74023L24.6099 6.75619C24.6129 6.76309 24.6165 6.7696 24.6209 6.77573C24.6233 6.7839 24.627 6.79169 24.6318 6.79884C24.6359 6.80746 24.6408 6.81576 24.6463 6.82367L24.7481 7.01718L24.7626 7.0438C24.8008 7.11837 24.8389 7.19287 24.8753 7.26744C24.9117 7.34201 24.9535 7.43254 24.9934 7.51419L25.1043 7.71121C25.1352 7.77869 25.1625 7.84438 25.1916 7.9118L25.2625 8.08934C25.2952 8.16864 25.3261 8.2485 25.3552 8.32901C25.3653 8.34963 25.3737 8.37102 25.3806 8.39291C25.4152 8.48344 25.4479 8.5704 25.4788 8.66622C25.5478 8.8633 25.6115 9.0639 25.6714 9.26628C25.6987 9.36032 25.7242 9.45442 25.7496 9.55025C25.7514 9.55727 25.7514 9.56461 25.7496 9.57157C25.8042 9.77574 25.8514 9.98163 25.8969 10.1893C25.9186 10.2923 25.9386 10.3953 25.9568 10.4982C25.9568 10.4982 25.9568 10.5248 25.9568 10.5408C25.9732 10.6296 25.9877 10.7183 26.0023 10.8106C26.0168 10.9029 26.0313 11.0147 26.0477 11.1142V11.1301C26.0622 11.2366 26.0731 11.3449 26.0859 11.4514C26.1059 11.6503 26.1222 11.8491 26.1331 12.0515C26.1604 12.2893 26.1677 12.5254 26.1677 12.7632Z" fill="white"/>
<path d="M22.6524 21.4777C22.0578 22.0995 21.4007 22.6615 20.6912 23.1552C19.9816 23.6502 19.2235 24.0753 18.4282 24.4244C15.874 25.5395 13.0211 25.8258 10.2881 25.2415C7.55508 24.6571 5.08571 23.2327 3.24233 21.1773C1.39895 19.1219 0.278546 16.5437 0.0454948 13.8209C-0.187556 11.0981 0.479008 8.37405 1.9474 6.04829C2.00557 5.95421 2.06737 5.87078 2.12917 5.76959C2.19097 5.66841 2.25277 5.59208 2.31093 5.49445C2.53633 5.17492 2.77868 4.86724 3.038 4.57138C3.08708 4.5128 3.13798 4.45422 3.1925 4.39387C3.21674 4.36546 3.24219 4.33707 3.26885 4.30866C3.32519 4.24476 3.38336 4.18262 3.45061 4.1205L3.51786 4.05127L5.40097 6.64648L5.4246 6.67846C5.38097 6.72992 5.33735 6.78317 5.29736 6.8382C5.25242 6.88908 5.21054 6.94239 5.17194 6.99799C3.76108 8.83825 3.07087 11.1108 3.22609 13.4047C3.38131 15.6986 4.3717 17.8627 6.01826 19.5056C7.66483 21.1486 9.85889 22.1621 12.2039 22.363C14.5489 22.5638 16.8902 21.9388 18.8045 20.6008L17.7138 19.1079L15.8435 16.5517C16.5912 16.0276 17.169 15.3049 17.5085 14.4695C17.792 13.7631 17.8946 12.9997 17.8074 12.2458C17.7201 11.4918 17.4457 10.77 17.0079 10.1432C16.57 9.51631 15.9821 9.00341 15.2952 8.64895C14.6082 8.2945 13.843 8.10917 13.0661 8.10923C12.9988 8.10923 12.9279 8.10923 12.8607 8.10923H12.8516C11.9363 8.14996 11.0527 8.4497 10.3087 8.97193L8.44192 6.41397C9.15957 5.91151 9.95823 5.52991 10.8049 5.28498C11.5422 5.07047 12.3076 4.96165 13.077 4.96191C13.3169 4.96191 13.5514 4.97256 13.784 4.99209C15.7725 5.16623 17.6223 6.06034 18.97 7.49871C20.3177 8.93707 21.0659 10.8157 21.0674 12.7654C21.0674 14.3871 20.5489 15.9684 19.5842 17.2884L20.7257 18.8488L22.6524 21.4777Z" fill="white"/>
<path fill-rule="evenodd" clip-rule="evenodd" d="M15.848 16.5414C15.3403 16.9052 14.7637 17.167 14.1517 17.3116C13.5395 17.456 12.9042 17.4805 12.2824 17.3833C11.6605 17.2862 11.0647 17.0695 10.5293 16.7457C9.99394 16.4219 9.52974 15.9976 9.16354 15.4972C8.79741 14.9969 8.53668 14.4305 8.39641 13.831C8.25609 13.2315 8.23911 12.6107 8.34643 12.0047C8.45368 11.3987 8.68307 10.8196 9.02137 10.3009C9.3596 9.78209 9.79992 9.33411 10.3169 8.98291L15.848 16.5414Z" fill="white"/>
<path d="M31.2627 13.1909C31.2627 12.3941 31.4349 11.6855 31.7794 11.0649C32.124 10.4367 32.6026 9.95027 33.2151 9.60552C33.8352 9.25311 34.5358 9.0769 35.3167 9.0769C36.2737 9.0769 37.093 9.32972 37.7743 9.83535C38.4558 10.341 38.9113 11.0305 39.141 11.9038H36.9819C36.8212 11.5668 36.5915 11.3101 36.2929 11.1339C36.002 10.9577 35.6689 10.8696 35.2937 10.8696C34.6888 10.8696 34.1989 11.0803 33.8237 11.5016C33.4485 11.923 33.261 12.4861 33.261 13.1909C33.261 13.8957 33.4485 14.4588 33.8237 14.8802C34.1989 15.3015 34.6888 15.5122 35.2937 15.5122C35.6689 15.5122 36.002 15.4241 36.2929 15.2479C36.5915 15.0717 36.8212 14.815 36.9819 14.478H39.141C38.9113 15.3513 38.4558 16.0408 37.7743 16.5464C37.093 17.0444 36.2737 17.2934 35.3167 17.2934C34.5358 17.2934 33.8352 17.121 33.2151 16.7763C32.6026 16.4239 32.124 15.9374 31.7794 15.3168C31.4349 14.6963 31.2627 13.9876 31.2627 13.1909Z" fill="white"/>
<path d="M42.3076 11.8923C42.5372 11.5399 42.8244 11.2641 43.1689 11.0649C43.5135 10.8581 43.8962 10.7546 44.3174 10.7546V12.8346H43.7776C43.2876 12.8346 42.9201 12.9419 42.6751 13.1564C42.43 13.3632 42.3076 13.731 42.3076 14.2596V17.2359H40.3438V10.8236H42.3076V11.8923Z" fill="white"/>
<path d="M51.8019 10.8237L47.7824 20.2813H45.6692L47.1392 17.0177L44.5322 10.8237H46.7258L48.2073 14.8343L49.6773 10.8237H51.8019Z" fill="white"/>
<path d="M54.4765 11.7315C54.6679 11.4327 54.9321 11.1914 55.269 11.0075C55.6058 10.8236 56.0001 10.7317 56.4519 10.7317C56.9802 10.7317 57.4587 10.8658 57.8874 11.1339C58.3162 11.402 58.6531 11.7851 58.8981 12.2831C59.1507 12.781 59.2771 13.3594 59.2771 14.0183C59.2771 14.6771 59.1507 15.2594 58.8981 15.765C58.6531 16.263 58.3162 16.6499 57.8874 16.9257C57.4587 17.1938 56.9802 17.3279 56.4519 17.3279C56.0078 17.3279 55.6135 17.2359 55.269 17.0521C54.9321 16.8682 54.6679 16.6307 54.4765 16.3396V20.2927H52.5127V10.8236H54.4765V11.7315ZM57.2788 14.0183C57.2788 13.528 57.1409 13.1449 56.8653 12.8691C56.5974 12.5857 56.2643 12.4439 55.8662 12.4439C55.4757 12.4439 55.1427 12.5857 54.867 12.8691C54.5991 13.1526 54.4651 13.5395 54.4651 14.0298C54.4651 14.5201 54.5991 14.907 54.867 15.1904C55.1427 15.4739 55.4757 15.6156 55.8662 15.6156C56.2567 15.6156 56.5897 15.4739 56.8653 15.1904C57.1409 14.8993 57.2788 14.5086 57.2788 14.0183Z" fill="white"/>
<path d="M63.8784 15.5696V17.2359H62.8794C62.1673 17.2359 61.6122 17.0635 61.2141 16.7188C60.816 16.3664 60.6169 15.7956 60.6169 15.0065V12.4554H59.8359V10.8236H60.6169V9.26074H62.5808V10.8236H63.8669V12.4554H62.5808V15.0295C62.5808 15.221 62.6267 15.3589 62.7185 15.4432C62.8104 15.5275 62.9636 15.5696 63.178 15.5696H63.8784Z" fill="white"/>
<path d="M67.8897 17.3279C67.2615 17.3279 66.6952 17.1938 66.1896 16.9257C65.6923 16.6575 65.2977 16.2745 65.0072 15.7765C64.7238 15.2785 64.582 14.6963 64.582 14.0298C64.582 13.3709 64.7276 12.7925 65.0181 12.2945C65.3092 11.7889 65.7076 11.402 66.2126 11.1339C66.7182 10.8658 67.2845 10.7317 67.9127 10.7317C68.5402 10.7317 69.1072 10.8658 69.6122 11.1339C70.1178 11.402 70.5155 11.7889 70.8066 12.2945C71.0978 12.7925 71.2427 13.3709 71.2427 14.0298C71.2427 14.6886 71.0939 15.2709 70.7952 15.7765C70.504 16.2745 70.1025 16.6575 69.5892 16.9257C69.0842 17.1938 68.5173 17.3279 67.8897 17.3279ZM67.8897 15.6271C68.2644 15.6271 68.5824 15.4892 68.8429 15.2134C69.111 14.9376 69.2444 14.5431 69.2444 14.0298C69.2444 13.5165 69.1148 13.1219 68.8544 12.8461C68.6015 12.5703 68.2874 12.4324 67.9127 12.4324C67.5296 12.4324 67.2117 12.5703 66.9595 12.8461C66.7067 13.1143 66.5803 13.5088 66.5803 14.0298C66.5803 14.5431 66.7029 14.9376 66.948 15.2134C67.2002 15.4892 67.5143 15.6271 67.8897 15.6271Z" fill="white"/>
<path d="M74.2485 11.7315C74.44 11.4327 74.7043 11.1914 75.0414 11.0075C75.3778 10.8236 75.7724 10.7317 76.2244 10.7317C76.7523 10.7317 77.2312 10.8658 77.6595 11.1339C78.0886 11.402 78.425 11.7851 78.6702 12.2831C78.923 12.781 79.0494 13.3594 79.0494 14.0183C79.0494 14.6771 78.923 15.2594 78.6702 15.765C78.425 16.263 78.0886 16.6499 77.6595 16.9257C77.2312 17.1938 76.7523 17.3279 76.2244 17.3279C75.78 17.3279 75.3855 17.2359 75.0414 17.0521C74.7043 16.8682 74.44 16.6307 74.2485 16.3396V20.2927H72.2847V10.8236H74.2485V11.7315ZM77.0511 14.0183C77.0511 13.528 76.9132 13.1449 76.6374 12.8691C76.3693 12.5857 76.0367 12.4439 75.6383 12.4439C75.2482 12.4439 74.915 12.5857 74.6392 12.8691C74.371 13.1526 74.237 13.5395 74.237 14.0298C74.237 14.5201 74.371 14.907 74.6392 15.1904C74.915 15.4739 75.2482 15.6156 75.6383 15.6156C76.029 15.6156 76.3616 15.4739 76.6374 15.1904C76.9132 14.8993 77.0511 14.5086 77.0511 14.0183Z" fill="white"/>
<path d="M82.9966 17.3279C82.3684 17.3279 81.8021 17.1938 81.2965 16.9257C80.7992 16.6575 80.4046 16.2745 80.1142 15.7765C79.8307 15.2785 79.689 14.6963 79.689 14.0298C79.689 13.3709 79.8345 12.7925 80.1256 12.2945C80.4161 11.7889 80.8145 11.402 81.3195 11.1339C81.8251 10.8658 82.3914 10.7317 83.0196 10.7317C83.6472 10.7317 84.2141 10.8658 84.7191 11.1339C85.2247 11.402 85.6225 11.7889 85.9136 12.2945C86.2047 12.7925 86.3503 13.3709 86.3503 14.0298C86.3503 14.6886 86.2009 15.2709 85.9021 15.7765C85.611 16.2745 85.2094 16.6575 84.6961 16.9257C84.1911 17.1938 83.6242 17.3279 82.9966 17.3279ZM82.9966 15.6271C83.3714 15.6271 83.6893 15.4892 83.9498 15.2134C84.2179 14.9376 84.3514 14.5431 84.3514 14.0298C84.3514 13.5165 84.2218 13.1219 83.9613 12.8461C83.7085 12.5703 83.3944 12.4324 83.0196 12.4324C82.6366 12.4324 82.3186 12.5703 82.0665 12.8461C81.8136 13.1143 81.6872 13.5088 81.6872 14.0298C81.6872 14.5431 81.8098 14.9376 82.055 15.2134C82.3071 15.4892 82.6212 15.6271 82.9966 15.6271Z" fill="white"/>
<path d="M89.356 8.73218V17.236H87.3916V8.73218H89.356Z" fill="white"/>
<path d="M91.7667 10.1572C91.422 10.1572 91.1385 10.0576 90.917 9.85841C90.7025 9.65156 90.5952 9.39875 90.5952 9.09997C90.5952 8.79353 90.7025 8.54071 90.917 8.34152C91.1385 8.13467 91.422 8.03125 91.7667 8.03125C92.1032 8.03125 92.379 8.13467 92.5935 8.34152C92.8156 8.54071 92.9267 8.79353 92.9267 9.09997C92.9267 9.39875 92.8156 9.65156 92.5935 9.85841C92.379 10.0576 92.1032 10.1572 91.7667 10.1572ZM92.7429 10.8237V17.236H90.7791V10.8237H92.7429Z" fill="white"/>
<path d="M97.7378 15.5696V17.2359H96.7387C96.0262 17.2359 95.4714 17.0635 95.073 16.7188C94.6753 16.3664 94.4761 15.7956 94.4761 15.0065V12.4554H93.6953V10.8236H94.4761V9.26074H96.4399V10.8236H97.7263V12.4554H96.4399V15.0295C96.4399 15.221 96.4859 15.3589 96.5778 15.4432C96.6697 15.5275 96.8223 15.5696 97.0368 15.5696H97.7378Z" fill="white"/>
<path d="M98.4409 14.0183C98.4409 13.3594 98.5635 12.781 98.8087 12.2831C99.0615 11.7851 99.4017 11.402 99.8308 11.1339C100.26 10.8658 100.738 10.7317 101.267 10.7317C101.718 10.7317 102.112 10.8236 102.45 11.0075C102.794 11.1914 103.058 11.4327 103.242 11.7315V10.8236H105.206V17.2359H103.242V16.3281C103.05 16.6269 102.782 16.8682 102.438 17.0521C102.101 17.2359 101.706 17.3279 101.255 17.3279C100.734 17.3279 100.26 17.1938 99.8308 16.9257C99.4017 16.6499 99.0615 16.263 98.8087 15.765C98.5635 15.2594 98.4409 14.6771 98.4409 14.0183ZM103.242 14.0298C103.242 13.5395 103.104 13.1526 102.828 12.8691C102.56 12.5857 102.231 12.4439 101.841 12.4439C101.45 12.4439 101.117 12.5857 100.841 12.8691C100.573 13.1449 100.439 13.528 100.439 14.0183C100.439 14.5086 100.573 14.8993 100.841 15.1904C101.117 15.4739 101.45 15.6156 101.841 15.6156C102.231 15.6156 102.56 15.4739 102.828 15.1904C103.104 14.907 103.242 14.5201 103.242 14.0298Z" fill="white"/>
<path d="M110.531 10.7546C111.281 10.7546 111.878 10.9998 112.323 11.4901C112.774 11.9727 113 12.6393 113 13.4896V17.2359H111.048V13.7539C111.048 13.3249 110.937 12.9917 110.714 12.7542C110.493 12.5167 110.194 12.3979 109.819 12.3979C109.444 12.3979 109.145 12.5167 108.923 12.7542C108.701 12.9917 108.59 13.3249 108.59 13.7539V17.2359H106.626V10.8236H108.59V11.674C108.789 11.3905 109.057 11.1683 109.394 11.0075C109.731 10.8389 110.11 10.7546 110.531 10.7546Z" fill="white"/>
</svg>
