<svg width="105" height="35" viewBox="0 0 105 35" fill="none" xmlns="http://www.w3.org/2000/svg">
<path d="M30.1795 0H0V30.1795H30.1795V0Z" fill="white"/>
<path d="M20.127 10.0635H10.0635V20.127H20.127V10.0635Z" fill="#A7A7A7"/>
<path d="M30.1797 0H20.1162V10.0635H30.1797V0Z" fill="#6B6B6B"/>
<path d="M20.127 20.127H10.0635V30.1905H20.127V20.127Z" fill="#D4D4D4"/>
<path d="M35.5693 16.2911V4.40893H38.2478L38.358 6.66853H38.4903C38.832 5.83082 39.35 5.21357 40.0555 4.80573C40.7609 4.3979 41.5325 4.18848 42.4033 4.18848C42.9985 4.18848 43.5496 4.27666 44.0677 4.46404C44.5857 4.65142 45.0266 4.938 45.4124 5.33481C45.7872 5.73162 46.0848 6.23866 46.3052 6.87796C46.5257 7.50624 46.6249 8.27781 46.6249 9.17063V16.3022H43.8362V9.77687C43.8362 9.02734 43.748 8.4211 43.5716 7.93611C43.3953 7.45113 43.1197 7.08739 42.756 6.85591C42.3922 6.61342 41.9183 6.50319 41.3341 6.50319C40.7058 6.50319 40.1767 6.65751 39.7358 6.95512C39.2949 7.25272 38.9532 7.64953 38.7218 8.13452C38.4793 8.63053 38.369 9.17063 38.369 9.76584V16.3132H35.5693V16.2911Z" fill="white"/>
<path d="M49.7992 16.2912V6.66859H47.749V4.40899H49.7992V2.88789C49.7992 1.95098 50.0858 1.23452 50.67 0.738505C51.2542 0.242494 52.0478 0 53.0619 0H55.3215V1.93995H53.8444C53.3484 1.93995 53.0178 2.03916 52.8524 2.24858C52.6761 2.45801 52.5989 2.74459 52.5989 3.09731V4.39796H55.101V6.65757H52.5989V16.2912H49.7992Z" fill="white"/>
<path d="M60.7449 16.2912C60.0174 16.2912 59.4443 16.181 59.0364 15.9716C58.6286 15.7511 58.342 15.4425 58.1767 15.0457C58.0114 14.6489 57.9342 14.1639 57.9342 13.5907V6.66863H55.7407V4.40902H57.9342V1.05819L60.7008 0.771606V4.40902H63.225V6.66863H60.7008V13.0837C60.7008 13.4585 60.778 13.701 60.9433 13.8332C61.1087 13.9545 61.3622 14.0206 61.7039 14.0206H63.225V16.3023H60.7449V16.2912Z" fill="white"/>
<path d="M40.6066 30.2457C39.5044 30.2457 38.5454 30.0032 37.7408 29.5072C36.9251 29.0112 36.2969 28.3168 35.856 27.4129C35.404 26.5091 35.1836 25.4619 35.1836 24.2715C35.1836 23.048 35.404 21.9899 35.8339 21.086C36.2638 20.1822 36.8811 19.4878 37.6857 18.9807C38.4903 18.4847 39.4493 18.2312 40.5626 18.2312C41.764 18.2312 42.7671 18.4957 43.5717 19.0358C44.3653 19.5759 44.9385 20.3144 45.2912 21.2514C45.6439 22.1883 45.7652 23.2464 45.6549 24.4258H36.4953C36.5063 25.4289 36.6937 26.2776 37.0354 26.972C37.3771 27.6775 37.8621 28.2065 38.4793 28.5813C39.0966 28.9561 39.813 29.1434 40.6177 29.1434C41.6207 29.1434 42.4364 28.912 43.0867 28.438C43.737 27.964 44.1449 27.3468 44.3322 26.5752H45.6329C45.5116 27.3247 45.2251 27.964 44.7621 28.5041C44.2992 29.0442 43.715 29.4741 43.0095 29.7827C42.2821 30.0914 41.4884 30.2457 40.6066 30.2457ZM36.5173 23.5881L36.363 23.4559H44.5196L44.3874 23.6543C44.3984 22.6843 44.2441 21.8907 43.9244 21.2514C43.6048 20.6231 43.1528 20.1381 42.5686 19.8184C41.9845 19.4988 41.3121 19.3334 40.5405 19.3334C39.7469 19.3334 39.0635 19.5098 38.4683 19.8515C37.8841 20.1932 37.4212 20.6782 37.0795 21.3175C36.7488 21.9568 36.5614 22.7063 36.5173 23.5881Z" fill="white"/>
<path d="M49.6782 30.0692L45.3022 18.4075H46.7352L49.6671 26.5641L50.4277 28.8237H50.4938L51.2323 26.5641L54.1423 18.4075H55.5752L51.2654 30.0692H49.6782Z" fill="white"/>
<path d="M60.6018 30.2457C59.4995 30.2457 58.5406 30.0032 57.7359 29.5072C56.9203 29.0112 56.292 28.3168 55.8511 27.4129C55.3992 26.5091 55.1787 25.4619 55.1787 24.2715C55.1787 23.048 55.3992 21.9899 55.829 21.086C56.2589 20.1822 56.8762 19.4878 57.6808 18.9807C58.4855 18.4847 59.4444 18.2312 60.5577 18.2312C61.7591 18.2312 62.7622 18.4957 63.5668 19.0358C64.3604 19.5759 64.9336 20.3144 65.2863 21.2514C65.639 22.1883 65.7603 23.2464 65.6501 24.4258H56.4904C56.5014 25.4289 56.6888 26.2776 57.0305 26.972C57.3722 27.6775 57.8572 28.2065 58.4744 28.5813C59.0917 28.9561 59.8081 29.1434 60.6128 29.1434C61.6158 29.1434 62.4315 28.912 63.0818 28.438C63.7321 27.964 64.14 27.3468 64.3274 26.5752H65.628C65.5068 27.3247 65.2202 27.964 64.7572 28.5041C64.2943 29.0442 63.7101 29.4741 63.0047 29.7827C62.2772 30.0914 61.4836 30.2457 60.6018 30.2457ZM56.5124 23.5881L56.3581 23.4559H64.5147L64.3825 23.6543C64.3935 22.6843 64.2392 21.8907 63.9195 21.2514C63.5999 20.6231 63.148 20.1381 62.5638 19.8184C61.9796 19.4988 61.3072 19.3334 60.5356 19.3334C59.742 19.3334 59.0586 19.5098 58.4634 19.8515C57.8792 20.1932 57.4163 20.6782 57.0746 21.3175C56.7549 21.9568 56.5565 22.7063 56.5124 23.5881Z" fill="white"/>
<path d="M67.3252 30.0693V18.4295H68.5487L68.6148 20.9537H68.703C69.0778 20.0609 69.6399 19.3885 70.4115 18.9366C71.1831 18.4846 72.0208 18.2532 72.9246 18.2532C73.5308 18.2532 74.093 18.3414 74.611 18.5287C75.1291 18.7161 75.57 19.0027 75.9448 19.3995C76.3195 19.7963 76.6061 20.3034 76.8155 20.9427C77.025 21.5709 77.1242 22.3425 77.1242 23.2574V30.0693H75.8015V23.4999C75.8015 22.563 75.6912 21.7914 75.4598 21.1741C75.2283 20.5679 74.8756 20.116 74.4016 19.8184C73.9277 19.5318 73.3104 19.3775 72.5719 19.3775C71.7783 19.3775 71.0949 19.5759 70.4886 19.9617C69.8934 20.3474 69.4305 20.8765 69.0998 21.5379C68.7691 22.1992 68.6038 22.9598 68.6038 23.8305V30.0693H67.3252Z" fill="white"/>
<path d="M79.5273 16.3463V13.7781H80.85V16.3463H79.5273ZM79.5273 30.0693V18.4296H80.85V30.0693H79.5273Z" fill="white"/>
<path d="M83.3296 30.0693V18.4295H84.5531L84.6192 20.9537H84.7074C85.0822 20.0609 85.6443 19.3885 86.4159 18.9366C87.1875 18.4846 88.0252 18.2532 88.929 18.2532C89.5352 18.2532 90.0974 18.3414 90.6154 18.5287C91.1335 18.7161 91.5744 19.0027 91.9492 19.3995C92.3239 19.7963 92.6105 20.3034 92.8199 20.9427C93.0294 21.5709 93.1286 22.3425 93.1286 23.2574V30.0693H91.8059V23.4999C91.8059 22.563 91.6956 21.7914 91.4642 21.1741C91.2327 20.5679 90.88 20.116 90.406 19.8184C89.932 19.5318 89.3148 19.3775 88.5763 19.3775C87.7827 19.3775 87.0993 19.5759 86.493 19.9617C85.8978 20.3474 85.4349 20.8765 85.1042 21.5379C84.7735 22.1992 84.6082 22.9598 84.6082 23.8305V30.0693H83.3296Z" fill="white"/>
<path d="M99.8414 34.0264C99.0037 34.0264 98.2652 33.9051 97.6259 33.6516C96.9866 33.3981 96.4685 33.0454 96.0717 32.5824C95.6749 32.1195 95.4324 31.5573 95.3222 30.907H96.6008C96.689 31.3259 96.8764 31.6896 97.163 32.0092C97.4495 32.3289 97.8133 32.5714 98.2652 32.7367C98.7171 32.9021 99.2462 32.9792 99.8414 32.9792C100.635 32.9792 101.307 32.869 101.87 32.6375C102.432 32.4061 102.884 32.0313 103.203 31.5132C103.523 30.9952 103.688 30.2787 103.688 29.3639V26.7736H103.578C103.291 27.5672 102.784 28.2065 102.057 28.6915C101.329 29.1875 100.459 29.43 99.4446 29.43C98.7171 29.43 98.0558 29.3087 97.4716 29.0552C96.8874 28.8017 96.3804 28.4269 95.9615 27.942C95.5427 27.4459 95.223 26.8618 95.0025 26.1673C94.7821 25.4729 94.6719 24.7014 94.6719 23.8526C94.6719 22.7063 94.8703 21.7143 95.2781 20.8655C95.6749 20.0278 96.2371 19.3775 96.9646 18.9256C97.692 18.4737 98.5297 18.2422 99.4997 18.2422C100.514 18.2422 101.374 18.4847 102.09 18.9586C102.806 19.4326 103.302 20.0719 103.589 20.8766H103.699V18.4296H105V29.3308C105 30.1795 104.879 30.907 104.625 31.5022C104.372 32.0974 104.019 32.5824 103.567 32.9572C103.115 33.3319 102.564 33.5965 101.936 33.7728C101.274 33.9382 100.58 34.0264 99.8414 34.0264ZM99.7973 28.3277C100.613 28.3277 101.307 28.1404 101.892 27.7656C102.465 27.3908 102.906 26.9169 103.214 26.3217C103.523 25.7375 103.677 25.1312 103.699 24.525L103.677 23.0921C103.677 22.4969 103.534 21.9127 103.236 21.3285C102.95 20.7443 102.509 20.2703 101.936 19.8956C101.363 19.5208 100.668 19.3334 99.8414 19.3334C99.0478 19.3334 98.3754 19.5098 97.8023 19.8735C97.2291 20.2262 96.7882 20.7443 96.4796 21.4277C96.1709 22.1111 96.0166 22.9047 96.0166 23.8306C96.0166 24.7675 96.1709 25.5721 96.4906 26.2445C96.7992 26.9169 97.2401 27.4239 97.8133 27.7876C98.3754 28.1404 99.0368 28.3277 99.7973 28.3277Z" fill="white"/>
</svg>
