<svg width="143" height="19" viewBox="0 0 143 19" fill="none" xmlns="http://www.w3.org/2000/svg">
<path d="M87.8741 10.0533C87.8741 13.4106 85.945 15.4138 82.7732 15.4138C79.6014 15.4138 77.6724 13.4106 77.6724 10.0533C77.6724 6.69599 79.62 4.69275 82.7732 4.69275C85.945 4.69275 87.8741 6.69599 87.8741 10.0533ZM80.4361 10.0533C80.4361 12.1864 81.2522 13.2807 82.7732 13.2807C84.2942 13.2807 85.0918 12.1678 85.0918 10.0533C85.0918 7.93874 84.2756 6.82583 82.7732 6.82583C81.2708 6.82583 80.4361 7.9202 80.4361 10.0533ZM100.283 15.2469H97.2782L94.0507 9.62666L93.2717 8.05004H93.2531L93.3088 9.99763V15.2469H90.916V4.84114H93.2902C93.6798 4.84114 94.0507 5.06372 94.2548 5.39759L97.1669 10.4613L97.9459 12.038H97.9645L97.9088 10.0904V4.84114H100.302L100.283 15.2469ZM112.061 13.1509V15.2469H104.123V4.84114H106.831V13.1509H112.061ZM117.867 15.2469H115.159V4.84114H117.867V15.2469ZM130.981 15.2469H127.976L124.749 9.62666L123.97 8.05004H123.951L124.007 9.99763V15.2469H121.614V4.84114H123.97C124.359 4.84114 124.73 5.06372 124.934 5.39759L127.846 10.4613L128.625 12.038H128.644L128.588 10.0904V4.84114H130.981V15.2469ZM143 13.1509V15.2469H134.691V4.84114H142.796V6.93712H137.399V9.05166H141.683V11.0178H137.399V13.1509H143Z" fill="white"/>
<path fill-rule="evenodd" clip-rule="evenodd" d="M18.1961 10.8509C17.8993 10.8694 17.6768 10.9622 17.4913 11.1291C17.3058 11.2775 17.176 11.4815 17.1018 11.7783C17.0276 12.0566 17.009 12.3904 17.009 12.7985C17.009 13.1324 17.0276 13.392 17.0832 13.6332C17.1203 13.8558 17.1945 14.0412 17.2687 14.1525C17.3429 14.2267 17.4727 14.2824 17.6211 14.2824C17.8437 14.2824 18.0292 14.1896 18.1961 14.0042C18.3631 13.8187 18.4743 13.559 18.5671 13.2251C18.6598 12.8912 18.6969 12.5017 18.6969 12.0566V10.7953L18.1961 10.8509ZM55.6456 8.38394C55.5714 7.97587 55.4787 7.642 55.3489 7.41942C55.219 7.19684 55.0335 7.08554 54.8295 7.08554C54.6255 7.08554 54.4214 7.19684 54.2359 7.41942C54.069 7.642 53.9392 7.93878 53.8279 8.36539C53.7351 8.77346 53.6795 9.27427 53.6795 9.88637H55.7384C55.7569 9.29282 55.7198 8.81056 55.6456 8.38394ZM63.2505 8.38394C63.1763 7.97587 63.0836 7.642 62.9538 7.41942C62.8239 7.19684 62.6384 7.08554 62.4344 7.08554C62.2304 7.08554 62.0263 7.19684 61.8408 7.41942C61.6739 7.642 61.5441 7.93878 61.4328 8.36539C61.34 8.77346 61.2844 9.27427 61.2844 9.88637H63.3433C63.3618 9.29282 63.3247 8.81056 63.2505 8.38394ZM0 0V18.5485H74.1942V0H0ZM13.9114 7.21538C13.8001 7.28958 13.6888 7.41942 13.6146 7.6049C13.5219 7.79039 13.4291 8.06862 13.3364 8.43959L11.5186 15.2655H9.83073L8.49523 9.66379L7.08554 15.2655H5.37908L3.61697 8.03152C3.56132 7.79039 3.48713 7.6049 3.39438 7.47506C3.32019 7.34522 3.2089 7.27103 3.09761 7.21538C2.96777 7.15974 2.81938 7.12264 2.63389 7.12264H2.5968V6.23231H6.97425V7.12264H6.80732C6.52909 7.12264 6.32505 7.17829 6.17666 7.27103C6.04682 7.36377 5.97263 7.54926 5.97263 7.82749C5.97263 7.92023 5.99118 8.03152 6.00973 8.17991C6.04683 8.30975 6.06537 8.43959 6.10247 8.56943L6.51054 10.7396C6.56618 11.0178 6.62183 11.2775 6.65893 11.5743C6.71457 11.8525 6.75167 12.1307 6.78877 12.3904C6.82586 12.6316 6.86296 12.8541 6.88151 13.0211H6.93716C6.9557 12.8356 6.9928 12.6501 7.0299 12.4275C7.067 12.2049 7.12264 11.9824 7.17829 11.7598C7.23393 11.5372 7.28958 11.3332 7.32667 11.1291L8.71782 6.32505H9.64524L10.9436 11.2961C10.9807 11.4259 11.0178 11.5557 11.0364 11.7227C11.0735 11.8711 11.092 12.038 11.1291 12.2049C11.1477 12.3533 11.1662 12.5203 11.1848 12.6687C11.2033 12.7985 11.2219 12.9283 11.2404 13.0396H11.2961C11.3146 12.8541 11.3332 12.6872 11.3703 12.5017C11.4074 12.3162 11.4445 12.1307 11.463 11.9267C11.5001 11.7041 11.5372 11.5001 11.5928 11.2775L12.1678 8.81056C12.2049 8.66217 12.2235 8.51378 12.2606 8.34684C12.2791 8.17991 12.2977 8.05007 12.2977 7.95733C12.2977 7.66055 12.2235 7.45651 12.0566 7.32667C11.9082 7.19684 11.6856 7.12264 11.3888 7.12264H11.2961V6.23231H14.5606V7.12264H14.3751C14.1896 7.12264 14.0412 7.15974 13.9114 7.21538ZM21.6462 15.3025H19.1606L18.8453 14.134H18.7155C18.4929 14.4308 18.3074 14.6904 18.1219 14.8945C17.9364 15.08 17.7324 15.2284 17.5098 15.3211C17.2687 15.3953 16.9905 15.4509 16.6566 15.4509C16.2485 15.4509 15.8776 15.3582 15.5437 15.1727C15.2098 14.9687 14.9501 14.6719 14.7461 14.2638C14.5606 13.8558 14.4679 13.3364 14.4679 12.7058C14.4679 11.7783 14.7275 11.1106 15.2284 10.684C15.7477 10.2388 16.5268 9.99767 17.5469 9.96057L18.6969 9.90492V8.9775C18.6969 8.56943 18.6598 8.217 18.6042 7.93878C18.5485 7.642 18.4558 7.41942 18.326 7.28958C18.2147 7.14119 18.0663 7.06699 17.8622 7.06699C17.6768 7.06699 17.5098 7.14119 17.3985 7.28958C17.2872 7.41942 17.1945 7.62345 17.1203 7.92023C17.0647 8.19846 17.0276 8.51378 17.0276 8.9033C16.3413 8.9033 15.8219 8.81056 15.488 8.62507C15.1542 8.43959 15.0058 8.16136 15.0058 7.77184C15.0058 7.38232 15.1356 7.067 15.4138 6.80732C15.6921 6.54764 16.063 6.36215 16.5268 6.23231C16.9905 6.10247 17.4913 6.04682 18.0663 6.04682C19.0865 6.04682 19.8655 6.26941 20.3848 6.69602C20.9042 7.12264 21.1824 7.86458 21.1824 8.92185V13.2251C21.1824 13.5404 21.201 13.7816 21.2566 13.9485C21.3123 14.1154 21.405 14.2453 21.5349 14.3195L21.6462 14.3751V15.3025ZM31.8849 15.2655H22.2583V14.3937H22.4437C22.6107 14.3937 22.7591 14.3566 22.9075 14.3009C23.0558 14.2453 23.1486 14.1154 23.2228 13.9485C23.297 13.763 23.3341 13.5219 23.3341 13.188V4.39601C23.3341 4.09923 23.2784 3.87665 23.1671 3.72826C23.0558 3.57987 22.926 3.48713 22.7776 3.45003C22.6478 3.41293 22.5179 3.37584 22.4252 3.37584H22.2583V2.4855H25.8381V13.1695C25.8381 13.5033 25.8752 13.7445 25.9494 13.93C26.0236 14.0969 26.1349 14.2082 26.2647 14.2824C26.4131 14.3566 26.5801 14.3751 26.747 14.3751H27.4518C27.6188 14.3751 27.7672 14.338 27.9156 14.2824C28.0639 14.2267 28.1567 14.0969 28.2309 13.93C28.3051 13.7445 28.3422 13.5033 28.3422 13.1695V4.39601C28.3422 4.09923 28.2865 3.87665 28.1752 3.72826C28.0639 3.57987 27.9341 3.48713 27.7857 3.45003C27.6559 3.41293 27.526 3.37584 27.4333 3.37584H27.2664V2.4855H30.8462V13.1695C30.8462 13.5033 30.8833 13.7445 30.9575 13.93C31.0317 14.0969 31.143 14.2082 31.2728 14.2824C31.4212 14.3566 31.5882 14.3751 31.7551 14.3751H31.8849V15.2655ZM37.5237 14.6904C37.0229 15.2098 36.2439 15.4695 35.2051 15.4695C34.4817 15.4695 33.8882 15.3953 33.443 15.2284C33.0164 15.0614 32.7196 14.8388 32.5341 14.5606C32.3487 14.2824 32.2559 13.9485 32.2559 13.559C32.2559 13.2622 32.3116 13.0211 32.4414 12.8541C32.5712 12.6687 32.7196 12.5388 32.9237 12.4646C33.1462 12.3904 33.3688 12.3533 33.61 12.3533C33.61 12.817 33.6842 13.2066 33.814 13.5219C33.9438 13.8372 34.1293 14.0783 34.3705 14.2267C34.6116 14.3751 34.8898 14.4679 35.2051 14.4679C35.6688 14.4679 35.9842 14.3566 36.1882 14.134C36.3737 13.9114 36.4664 13.6332 36.4664 13.2993C36.4664 13.0582 36.4108 12.8356 36.281 12.6687C36.1697 12.5017 36.0027 12.3348 35.7616 12.2049C35.5205 12.0566 35.2237 11.8896 34.8342 11.7412C34.2777 11.5001 33.814 11.259 33.443 11.0178C33.0906 10.7582 32.8124 10.4614 32.6083 10.109C32.4229 9.75653 32.3301 9.29282 32.3301 8.75491C32.3301 7.86458 32.6083 7.17829 33.1833 6.75167C33.7769 6.30651 34.5374 6.08392 35.4834 6.08392C36.0955 6.08392 36.5777 6.15812 36.9487 6.32505C37.3197 6.47344 37.5979 6.65893 37.7648 6.91861C37.9503 7.15974 38.0431 7.41942 38.0431 7.69765C38.0431 8.06862 37.9318 8.34684 37.7092 8.53233C37.4866 8.71782 37.1156 8.81056 36.6334 8.81056C36.6334 8.2541 36.5035 7.82749 36.2439 7.53071C35.9842 7.23393 35.6688 7.08554 35.2793 7.08554C35.0753 7.08554 34.8898 7.12264 34.7414 7.19684C34.593 7.27103 34.4632 7.40087 34.3705 7.54926C34.2963 7.69765 34.2592 7.88313 34.2592 8.08716C34.2592 8.34684 34.2963 8.55088 34.389 8.73636C34.4817 8.9033 34.6672 9.07024 34.8898 9.20008C35.1309 9.34847 35.4834 9.5154 35.91 9.68234C36.4108 9.88637 36.8374 10.109 37.2084 10.3501C37.5793 10.5912 37.8576 10.888 38.0431 11.2404C38.2471 11.5928 38.3398 12.038 38.3398 12.5945C38.3398 13.4662 38.0616 14.1525 37.5237 14.6904ZM50.6746 8.68072C50.3222 8.92185 49.8399 9.03314 49.2464 9.03314C49.2464 8.71782 49.2278 8.45814 49.1907 8.2541C49.1722 8.05007 49.1165 7.90168 49.0238 7.79039C48.9311 7.6791 48.8012 7.62345 48.6157 7.62345C48.4488 7.62345 48.3004 7.71619 48.152 7.90168C48.0222 8.06862 47.9294 8.30975 47.8367 8.58798C47.7439 8.8662 47.6883 9.18153 47.6327 9.5525C47.5956 9.90492 47.5585 10.2573 47.5585 10.5912V13.2437C47.5585 13.5775 47.5956 13.8187 47.6512 13.9856C47.7254 14.134 47.8367 14.2453 47.948 14.3009C48.0778 14.338 48.2448 14.3751 48.4117 14.3751H48.8754V15.2655H44.127V14.3937C44.2939 14.3937 44.4238 14.3566 44.5536 14.3009C44.702 14.2453 44.8318 14.134 44.906 13.9671C44.9988 13.7816 45.0359 13.5219 45.0359 13.1695V8.43959C45.0359 8.10571 44.9988 7.84603 44.9246 7.69765C44.8504 7.53071 44.7576 7.41942 44.6278 7.38232C44.498 7.32667 44.331 7.28958 44.127 7.28958H42.0866V12.5759C42.0866 13.0767 42.1423 13.4477 42.2536 13.6888C42.3834 13.9114 42.606 14.0227 42.9213 14.0227C43.0141 14.0227 43.1254 14.0227 43.2181 14.0042V15.2655C43.1996 15.2655 43.181 15.284 43.1625 15.284C42.8286 15.3953 42.3834 15.4509 41.8455 15.4509C41.1407 15.4509 40.5842 15.2469 40.1761 14.8574C39.7681 14.4679 39.564 13.7816 39.564 12.7799V7.30813H38.5439V6.51054C38.9148 6.49199 39.2302 6.39925 39.4713 6.25086C39.7124 6.10247 39.9165 5.91699 40.0463 5.75005C40.1761 5.60166 40.2874 5.37908 40.3987 5.1194C40.51 4.85972 40.6028 4.52584 40.677 4.13632H42.0866V6.23231H47.1504L47.4286 7.90168H47.5214C47.6698 7.49361 47.8367 7.15974 48.0222 6.88151C48.2262 6.60328 48.4673 6.39925 48.727 6.25086C49.0053 6.10247 49.3206 6.02828 49.6915 6.02828C50.2109 6.02828 50.6004 6.17666 50.8416 6.45489C51.0827 6.73312 51.194 7.10409 51.194 7.54926C51.194 8.05007 51.027 8.43959 50.6746 8.68072ZM58.2053 10.9436H53.6609C53.6795 11.7041 53.7537 12.3162 53.9021 12.817C54.0505 13.2993 54.2545 13.6517 54.5513 13.8929C54.8295 14.134 55.1819 14.2453 55.5714 14.2453C55.9053 14.2453 56.165 14.1896 56.4061 14.0598C56.6287 13.93 56.8327 13.7445 56.9997 13.5219C57.1666 13.2993 57.2965 13.0582 57.4077 12.7799C57.5561 12.817 57.686 12.9098 57.7973 13.0396C57.9086 13.1695 57.9642 13.3179 57.9642 13.5219C57.9642 13.8001 57.8715 14.0969 57.6674 14.3937C57.4634 14.6904 57.1481 14.9501 56.7029 15.1542C56.2392 15.3582 55.6642 15.4509 54.9408 15.4509C53.6795 15.4509 52.715 15.0429 52.0843 14.2453C51.4537 13.4291 51.1383 12.2791 51.1383 10.8138C51.1383 9.23717 51.4537 8.03152 52.0843 7.23393C52.7335 6.4178 53.6238 6.02828 54.7738 6.02828C55.8497 6.02828 56.6843 6.3807 57.2779 7.06699C57.89 7.75329 58.2053 8.77346 58.2053 10.109V10.9436ZM65.7917 10.9436H61.2473C61.2658 11.7041 61.34 12.3162 61.4884 12.817C61.6368 13.2993 61.8408 13.6517 62.1376 13.8929C62.4159 14.134 62.7683 14.2453 63.1578 14.2453C63.4917 14.2453 63.7513 14.1896 63.9925 14.0598C64.2151 13.93 64.4191 13.7445 64.586 13.5219C64.753 13.2993 64.8828 13.0582 64.9941 12.7799C65.1425 12.817 65.2723 12.9098 65.3836 13.0396C65.4949 13.1695 65.5506 13.3179 65.5506 13.5219C65.5506 13.8001 65.4578 14.0969 65.2538 14.3937C65.0497 14.6904 64.7344 14.9501 64.2893 15.1542C63.8255 15.3582 63.2505 15.4509 62.5271 15.4509C61.2658 15.4509 60.3013 15.0429 59.6707 14.2453C59.04 13.4291 58.7247 12.2791 58.7247 10.8138C58.7247 9.23717 59.04 8.03152 59.6707 7.23393C60.3199 6.4178 61.2102 6.02828 62.3602 6.02828C63.436 6.02828 64.2707 6.3807 64.8643 7.06699C65.4764 7.75329 65.7917 8.77346 65.7917 10.109V10.9436ZM71.2079 15.0058C71.0409 15.08 70.7812 15.1727 70.4103 15.284C70.0764 15.3953 69.6312 15.4509 69.0933 15.4509C68.3885 15.4509 67.832 15.2469 67.424 14.8574C67.0159 14.4679 66.8119 13.7816 66.8119 12.7799V7.30813H65.7917V6.51054C66.1627 6.49199 66.478 6.39925 66.7191 6.25086C66.9602 6.10247 67.1643 5.91699 67.2941 5.75005C67.424 5.60166 67.5352 5.37908 67.6465 5.1194C67.7578 4.85972 67.8506 4.52584 67.9248 4.13632H69.3345V6.23231H71.0966V7.28958H69.3345V12.5759C69.3345 13.0767 69.3901 13.4477 69.5014 13.6888C69.6312 13.9114 69.8538 14.0227 70.1691 14.0227C70.3546 14.0227 70.5401 14.0042 70.7256 13.9856C70.9111 13.9485 71.0595 13.9114 71.2079 13.8743V15.0058Z" fill="white"/>
</svg>
